<?xml version="1.0" standalone="no"?>
<!DOCTYPE svg PUBLIC "-//W3C//DTD SVG 20010904//EN"
 "http://www.w3.org/TR/2001/REC-SVG-20010904/DTD/svg10.dtd">
<svg version="1.0" xmlns="http://www.w3.org/2000/svg"
 width="2000.000000pt" height="2000.000000pt" viewBox="0 0 2000.000000 2000.000000"
 preserveAspectRatio="xMidYMid meet">

<g transform="translate(0.000000,2000.000000) scale(0.100000,-0.100000)"
fill="#000000" stroke="none">
<path d="M9515 18631 c-121 -70 -269 -155 -330 -191 -60 -35 -139 -80 -175
-100 -36 -20 -126 -72 -200 -115 -74 -43 -266 -154 -427 -246 -160 -92 -349
-201 -420 -242 -270 -157 -330 -191 -403 -232 -41 -23 -102 -58 -135 -77 -153
-89 -476 -275 -535 -308 -64 -36 -276 -158 -395 -228 -79 -46 -171 -98 -275
-157 -47 -26 -89 -51 -95 -55 -5 -4 -118 -70 -250 -145 -132 -76 -343 -197
-470 -270 -126 -72 -275 -158 -330 -190 -106 -62 -121 -70 -760 -437 -225
-130 -495 -285 -600 -345 -104 -60 -314 -181 -465 -268 -151 -87 -419 -241
-595 -343 -176 -101 -340 -196 -365 -210 -25 -13 -70 -39 -100 -57 -374 -219
-401 -233 -407 -217 -3 6 -9 12 -13 12 -5 0 -51 25 -102 55 l-93 55 -3 -3147
c-1 -1732 0 -3163 3 -3181 7 -37 55 -96 96 -118 16 -8 29 -20 29 -27 0 -6 -27
-51 -60 -99 l-60 -87 22 -15 c12 -9 26 -16 30 -16 5 0 26 -11 48 -25 49 -31
73 -32 89 -2 6 12 25 40 41 62 45 59 62 104 54 140 -8 32 -9 46 -12 112 -2 34
-8 46 -32 63 -16 12 -38 22 -49 23 -11 0 -34 13 -51 27 -28 23 -30 28 -20 50
7 14 37 45 67 70 30 25 70 58 88 73 l34 28 98 -51 c107 -56 121 -69 143 -144
14 -46 19 -51 45 -51 17 0 35 3 40 6 6 3 23 9 39 13 l30 7 -30 20 c-16 11 -42
26 -59 35 -70 35 -70 34 -30 115 20 41 45 90 56 110 10 20 19 51 19 68 0 58
21 81 120 136 36 20 88 49 115 65 78 46 85 42 85 -38 0 -78 -7 -88 -89 -141
-50 -33 -51 -34 -29 -46 91 -47 126 -65 151 -74 32 -12 35 -37 12 -101 -8 -24
-14 -44 -13 -46 2 -1 107 57 233 130 225 129 366 211 1040 599 182 105 385
221 453 260 67 38 122 73 122 77 0 10 -168 169 -234 222 -90 72 -125 86 -252
107 -185 30 -201 32 -184 21 8 -5 11 -10 7 -10 -4 0 -18 6 -30 14 -12 8 -44
17 -71 21 -64 9 -239 61 -286 85 -64 33 -98 68 -115 121 -14 41 -20 49 -35 44
-11 -3 -92 -49 -182 -100 -90 -52 -167 -94 -173 -92 -18 6 -17 53 2 75 10 11
88 61 173 110 l155 90 6 43 c3 24 9 51 13 59 4 10 -2 24 -18 39 l-24 22 -98
-57 c-215 -125 -224 -128 -224 -80 0 37 25 58 185 152 194 114 274 156 287
148 5 -4 8 -20 6 -36 -3 -16 -2 -31 2 -33 9 -6 202 -55 216 -55 5 0 39 17 75
38 35 21 99 58 142 82 l77 44 0 60 c0 72 24 129 56 134 16 2 31 -10 58 -47 39
-56 51 -60 87 -33 47 35 98 61 104 51 4 -5 14 -9 23 -8 14 0 14 2 -2 8 -11 4
-15 10 -10 14 14 8 54 -3 54 -14 0 -13 28 -11 36 3 4 7 3 8 -5 4 -6 -4 -22 1
-36 12 -22 17 -23 20 -7 25 21 7 128 67 207 116 33 21 89 53 125 72 36 18 67
36 70 40 3 3 34 21 70 40 36 19 67 37 70 40 4 4 73 44 172 99 37 21 115 66
233 135 55 32 125 72 155 89 63 36 91 52 201 117 43 26 81 44 84 41 3 -3 11 2
18 10 6 9 35 28 62 43 28 15 55 31 61 36 7 6 22 3 40 -6 16 -8 33 -15 37 -15
15 0 67 41 67 52 0 6 -9 3 -20 -7 -14 -12 -27 -15 -47 -11 -27 7 -27 7 -8 -8
25 -19 6 -21 -20 -2 -18 13 -17 14 8 30 14 10 32 14 38 10 7 -4 9 -3 6 3 -6 9
130 93 151 93 5 0 15 7 22 15 8 9 21 13 34 10 13 -4 16 -3 9 2 -9 6 -4 14 18
27 28 17 31 17 56 1 24 -16 26 -16 20 -1 -5 13 -3 16 11 11 11 -3 34 1 53 9
28 13 30 15 12 16 -13 0 -23 5 -23 10 0 6 -5 10 -11 10 -6 0 -8 -9 -4 -20 7
-22 -18 -29 -31 -9 -5 8 -9 8 -14 -1 -4 -7 -14 -10 -21 -8 -8 3 9 18 41 36 59
34 79 40 61 18 -14 -16 8 -29 28 -16 9 5 2 18 -23 46 -20 21 -48 63 -63 92
-21 43 -25 62 -20 102 12 96 72 170 140 170 47 0 89 -25 167 -99 41 -39 82
-71 90 -72 70 -6 86 40 50 146 -20 60 -25 111 -12 131 4 6 21 19 39 28 63 32
105 109 129 235 8 41 18 79 23 84 4 4 41 -1 81 -12 120 -34 266 -47 360 -32
113 17 171 36 230 76 29 19 55 35 60 35 4 0 21 -28 38 -62 31 -64 55 -162 68
-277 l7 -64 31 36 c26 31 184 129 416 258 25 14 104 60 177 102 73 42 139 77
147 77 9 0 20 -9 26 -21 9 -16 7 -29 -12 -66 -22 -43 -35 -53 -258 -181 -243
-140 -311 -179 -442 -253 l-78 -44 0 -102 c0 -57 3 -103 6 -103 3 0 63 33 132
74 248 144 378 219 442 256 36 20 140 80 232 133 92 53 176 97 187 97 30 0 37
-41 14 -87 -19 -40 -28 -46 -553 -347 -460 -264 -470 -270 -470 -289 0 -41
-43 -225 -61 -267 -25 -55 -61 -95 -114 -123 -33 -18 -62 -22 -167 -25 -71 -2
-128 -7 -128 -11 0 -3 5 -48 10 -99 9 -80 15 -100 42 -140 39 -57 50 -140 24
-190 -36 -70 -176 -101 -306 -68 -130 33 -274 122 -354 220 l-38 45 -15 313
c-8 172 -17 315 -19 317 -2 2 -12 -3 -21 -11 -52 -46 -107 -56 -180 -32 -13 4
-14 3 -5 -4 10 -6 -2 -17 -45 -38 -32 -16 -60 -32 -63 -35 -3 -3 -45 -28 -95
-56 -49 -28 -130 -75 -180 -103 -49 -29 -110 -64 -134 -78 -25 -14 -67 -38
-94 -54 -26 -15 -52 -26 -57 -23 -14 9 -61 -6 -54 -17 3 -5 11 -4 20 2 7 7 19
10 26 8 7 -3 -1 -11 -17 -20 -70 -37 -103 -56 -144 -82 -25 -16 -56 -34 -70
-40 -14 -6 -45 -24 -68 -39 -24 -15 -69 -41 -100 -58 -32 -17 -83 -46 -113
-64 -190 -114 -212 -124 -236 -109 -15 10 -24 12 -29 5 -3 -7 3 -11 14 -11 12
0 21 -3 21 -7 0 -11 -63 -51 -139 -90 -35 -18 -71 -39 -80 -46 -9 -8 -36 -25
-61 -38 -25 -13 -78 -43 -117 -66 -40 -24 -76 -43 -80 -43 -3 0 -14 -6 -22
-14 -9 -7 -43 -28 -75 -45 -33 -17 -64 -35 -70 -40 -6 -4 -36 -21 -66 -37
-103 -54 -103 -52 -25 -136 37 -40 94 -111 127 -158 67 -95 127 -162 139 -154
4 2 11 -1 15 -7 5 -8 2 -10 -7 -5 -33 17 76 -73 238 -196 96 -73 199 -152 230
-175 30 -24 60 -43 66 -43 7 0 66 32 132 69 l119 69 22 -38 c78 -137 241 -254
457 -330 43 -15 81 -31 84 -34 4 -3 16 -6 27 -6 17 0 28 18 60 103 21 56 44
116 51 132 9 24 13 -50 18 -385 4 -228 7 -490 7 -582 0 -91 4 -168 9 -170 5
-1 14 -64 21 -138 22 -255 73 -459 158 -625 37 -73 64 -108 142 -186 81 -82
296 -249 320 -249 4 0 196 109 426 241 653 376 796 459 979 564 325 186 500
288 518 300 16 11 7 20 -80 76 -54 35 -190 119 -303 187 -113 68 -208 127
-212 130 -18 18 -49 338 -64 663 l-6 146 48 8 c135 20 310 101 421 193 37 32
69 67 71 78 4 29 -208 643 -320 924 -110 278 -163 357 -281 414 -32 16 -56 31
-53 33 5 5 268 158 686 398 146 83 324 186 395 227 369 214 467 268 473 264 4
-2 8 12 10 32 1 19 6 40 10 46 5 6 14 36 21 66 21 89 51 169 89 234 44 76 185
218 275 276 l67 44 0 611 c0 605 0 610 19 579 23 -38 73 -78 124 -99 l37 -15
0 -113 c0 -63 3 -116 6 -119 3 -4 7 -32 9 -63 4 -67 45 -206 59 -198 5 3 6 1
2 -6 -9 -14 30 -95 58 -119 11 -10 16 -11 11 -3 -5 9 -4 12 3 7 6 -4 8 -14 5
-23 -4 -11 -3 -14 5 -9 8 5 10 1 5 -10 -5 -14 -3 -16 12 -11 19 8 45 -8 45
-27 0 -6 -5 -3 -11 7 -5 9 -15 17 -21 17 -17 0 42 -59 77 -78 35 -18 200 -29
175 -11 -11 8 -7 9 18 4 23 -5 32 -3 32 7 0 8 5 6 11 -6 6 -10 9 -33 6 -52 -5
-26 -2 -34 10 -34 11 0 13 -4 6 -12 -11 -14 -14 -45 -6 -68 2 -8 5 -42 7 -76
1 -40 8 -71 20 -89 32 -49 78 -95 89 -88 6 3 7 1 3 -6 -10 -15 61 -84 76 -75
6 4 8 2 5 -4 -9 -14 83 -86 155 -123 88 -45 161 -59 235 -45 34 6 65 14 69 19
4 4 16 7 26 7 10 0 32 13 49 28 24 21 31 36 31 64 0 41 -26 88 -36 66 -3 -7
-4 -4 -1 7 2 11 -5 31 -16 45 -11 14 -17 19 -13 11 5 -9 3 -12 -5 -7 -6 4 -9
12 -5 17 6 10 -54 79 -69 79 -4 0 -5 -5 -1 -12 4 -7 3 -8 -4 -4 -6 4 -9 13 -6
21 5 13 -32 42 -48 37 -8 -2 -12 66 -8 132 1 26 -2 36 -9 32 -6 -4 -11 -2 -11
3 0 6 5 11 10 11 6 0 10 21 10 48 0 34 -3 43 -10 32 -6 -9 -10 -10 -10 -3 0 7
6 16 13 20 7 4 25 29 40 55 15 26 69 97 120 159 226 274 265 358 274 599 8
194 -21 321 -106 461 l-39 64 34 6 c18 3 40 12 49 19 21 18 45 64 45 88 0 17
-5 18 -47 11 -27 -4 -58 -8 -70 -8 -21 -1 -21 0 -7 27 19 37 18 71 -6 110 -17
28 -66 60 -76 49 -2 -2 -10 -42 -17 -90 -8 -48 -16 -90 -19 -92 -2 -2 -24 9
-48 26 -156 105 -348 159 -565 159 -60 0 -139 -5 -175 -11 -36 -6 -171 -12
-300 -13 -217 -2 -239 -3 -282 -23 l-48 -22 -2 2108 -3 2108 -220 -126z m-400
-781 c11 -34 -25 -90 -79 -124 -166 -105 -206 -115 -206 -53 0 47 35 83 136
143 97 57 139 67 149 34z m-457 -272 c5 -41 -22 -82 -75 -116 -26 -16 -140
-83 -253 -147 -449 -258 -539 -310 -640 -369 -58 -34 -113 -65 -122 -69 -30
-11 -48 3 -48 35 0 44 32 90 82 118 24 13 156 89 293 169 138 79 279 161 315
181 69 40 124 71 290 168 117 69 153 76 158 30z m206 -184 c23 -9 20 -60 -4
-94 -20 -28 -73 -65 -177 -122 -79 -44 -110 -18 -71 60 20 38 37 53 123 103
109 63 106 62 129 53z m-442 -282 c7 -33 -5 -64 -37 -96 -17 -17 -144 -95
-281 -174 -137 -79 -305 -176 -374 -217 -150 -89 -167 -97 -191 -90 -14 5 -19
16 -19 39 0 64 47 97 450 325 36 21 126 73 200 116 225 132 244 139 252 97z
m442 -58 c26 -10 20 -68 -10 -103 -25 -30 -208 -141 -232 -141 -34 0 -34 65 0
110 14 18 210 140 225 140 1 0 8 -3 17 -6z m246 -224 c15 -28 3 -64 -33 -100
-36 -34 -199 -130 -222 -130 -21 0 -29 43 -16 83 9 27 27 43 94 82 45 27 93
57 106 67 31 24 58 23 71 -2z m-690 -60 c8 -14 7 -28 -3 -52 -19 -43 -44 -65
-142 -120 -223 -128 -483 -277 -588 -340 -132 -78 -160 -83 -165 -30 -6 65 2
72 367 283 90 52 234 135 320 185 86 51 166 92 178 93 13 1 27 -7 33 -19z
m234 -231 c-2 -59 -24 -81 -154 -154 -30 -17 -174 -100 -320 -185 -146 -84
-294 -170 -330 -190 -36 -20 -113 -65 -173 -99 -120 -70 -150 -75 -155 -26 -5
56 26 85 199 184 90 52 200 116 244 141 44 26 172 100 285 165 113 65 239 138
280 162 46 27 85 42 100 41 22 -3 25 -8 24 -39z m-1894 1 c0 -5 -7 -7 -15 -4
-8 4 -15 8 -15 10 0 2 7 4 15 4 8 0 15 -4 15 -10z m2118 -208 c5 -50 -32 -90
-140 -150 -104 -57 -133 -64 -141 -30 -7 24 13 77 35 95 39 33 205 122 223
120 15 -1 21 -11 23 -35z m-2478 -12 c0 -5 -4 -10 -10 -10 -5 0 -10 5 -10 10
0 6 5 10 10 10 6 0 10 -4 10 -10z m-60 -46 c0 -8 -19 -13 -24 -6 -3 5 1 9 9 9
8 0 15 -2 15 -3z m-31 -18 c10 -12 8 -13 -8 -9 -12 3 -18 9 -15 14 7 12 10 11
23 -5z m-123 -41 c-23 -17 -50 -20 -41 -5 4 6 11 8 16 5 5 -4 9 -1 9 4 0 6 8
11 18 11 15 -1 15 -2 -2 -15z m-86 -57 c0 -6 -6 -5 -15 2 -8 7 -15 14 -15 16
0 2 7 1 15 -2 8 -4 15 -11 15 -16z m3015 -17 c7 -22 -10 -68 -33 -94 -29 -33
-202 -128 -225 -125 -29 4 -34 52 -10 92 20 32 206 145 240 146 13 0 24 -8 28
-19z m-696 -50 c14 -25 -3 -82 -31 -108 -13 -11 -88 -57 -168 -103 -165 -94
-510 -293 -585 -337 -89 -52 -115 -52 -115 -1 0 58 26 82 209 189 454 266 653
379 668 379 7 0 17 -8 22 -19z m-1559 -40 c0 -42 -23 -63 -145 -132 -60 -34
-125 -70 -143 -81 -18 -10 -66 -37 -105 -60 -40 -22 -101 -58 -137 -78 -36
-20 -155 -88 -265 -152 -110 -63 -236 -136 -280 -160 -44 -25 -186 -106 -315
-180 -129 -75 -253 -146 -275 -158 -21 -12 -168 -96 -325 -186 -158 -90 -293
-164 -302 -164 -24 0 -28 25 -10 59 16 30 198 141 597 363 39 21 430 245 870
498 440 252 808 459 818 459 12 1 17 -7 17 -28z m-1020 -21 c0 -5 -5 -10 -11
-10 -5 0 -7 5 -4 10 3 6 8 10 11 10 2 0 4 -4 4 -10z m-150 -135 c0 -2 -10 -9
-22 -15 -22 -11 -22 -10 -4 4 21 17 26 19 26 11z m2963 -16 c13 -20 3 -58 -22
-91 -11 -13 -89 -64 -173 -112 -84 -49 -182 -106 -218 -126 -188 -109 -322
-186 -380 -220 -36 -20 -116 -67 -179 -104 -130 -76 -154 -80 -159 -25 -4 50
28 85 135 147 49 27 160 92 248 143 88 51 189 109 225 129 36 20 92 53 125 72
266 155 362 208 374 206 8 -2 18 -10 24 -19z m-3258 -108 c-3 -6 -11 -11 -17
-11 -6 0 -6 6 2 15 14 17 26 13 15 -4z m474 2 c15 -28 -12 -66 -76 -105 -32
-19 -150 -88 -263 -153 -113 -65 -248 -143 -300 -173 -52 -30 -120 -69 -150
-85 -30 -17 -71 -40 -90 -52 -41 -26 -213 -125 -540 -313 -457 -262 -527 -302
-538 -302 -21 0 -25 42 -6 67 11 14 93 68 184 120 182 105 253 146 380 220 47
28 105 62 130 76 46 25 345 198 525 302 55 32 127 74 160 93 33 19 94 54 135
77 79 45 160 91 263 152 108 63 162 93 169 93 4 0 11 -8 17 -17z m991 -11 c0
-51 32 -30 -545 -359 -430 -246 -804 -460 -1210 -693 -203 -117 -395 -226
-425 -243 -30 -16 -64 -36 -75 -44 -32 -22 -55 -17 -55 13 0 38 15 60 62 87
24 13 72 41 108 62 36 21 94 54 130 73 36 19 77 43 92 54 14 10 28 18 31 18 3
0 60 32 128 72 226 131 244 140 299 171 30 16 66 36 79 44 12 8 46 28 75 43
28 16 89 51 136 79 47 27 112 65 145 84 33 19 96 54 140 79 44 25 103 58 130
73 28 16 97 56 155 90 108 63 151 88 280 160 107 59 166 93 229 131 71 42 91
43 91 6z m-1410 -6 c0 -2 -7 -6 -15 -10 -8 -3 -15 -1 -15 4 0 6 7 10 15 10 8
0 15 -2 15 -4z m-380 -176 c0 -5 -4 -10 -10 -10 -5 0 -10 5 -10 10 0 6 5 10
10 10 6 0 10 -4 10 -10z m-35 -10 c-3 -5 -11 -10 -16 -10 -6 0 -7 5 -4 10 3 6
11 10 16 10 6 0 7 -4 4 -10z m1775 -134 c0 -3 -4 -8 -10 -11 -5 -3 -10 -1 -10
4 0 6 5 11 10 11 6 0 10 -2 10 -4z m-2005 -55 c-6 -5 -25 10 -25 20 0 5 6 4
14 -3 8 -7 12 -15 11 -17z m1755 -121 c0 -5 -4 -10 -10 -10 -5 0 -10 5 -10 10
0 6 5 10 10 10 6 0 10 -4 10 -10z m-2063 -46 c-3 -3 -12 -4 -19 -1 -8 3 -5 6
6 6 11 1 17 -2 13 -5z m1908 -44 c-3 -5 -12 -10 -18 -10 -7 0 -6 4 3 10 19 12
23 12 15 0z m-2000 -10 c3 -6 -1 -7 -9 -4 -18 7 -21 14 -7 14 6 0 13 -4 16
-10z m-164 -73 c-10 -9 -11 -8 -5 6 3 10 9 15 12 12 3 -3 0 -11 -7 -18z m-61
-11 c0 -3 -4 -8 -10 -11 -5 -3 -10 -1 -10 4 0 6 5 11 10 11 6 0 10 -2 10 -4z
m4931 -30 c9 -18 7 -31 -6 -59 -18 -39 -25 -45 -153 -118 -93 -54 -114 -55
-120 -5 -3 22 29 85 48 94 3 1 46 27 95 57 50 29 98 54 108 54 9 1 22 -10 28
-23z m-2944 -2 c-3 -3 -12 -4 -19 -1 -8 3 -5 6 6 6 11 1 17 -2 13 -5z m-1997
-29 c-7 -8 -17 -15 -22 -15 -11 0 14 29 26 30 5 0 3 -7 -4 -15z m-146 -44 c3
-5 -1 -11 -9 -14 -9 -4 -12 -1 -8 9 6 16 10 17 17 5z m1730 -166 c-4 -8 -11
-12 -16 -9 -6 4 -5 10 3 15 19 12 19 11 13 -6z m-1969 -5 c3 -6 -1 -7 -9 -4
-18 7 -21 14 -7 14 6 0 13 -4 16 -10z m3103 -13 c8 -38 -48 -84 -208 -170 -19
-11 -87 -50 -150 -87 -63 -38 -288 -168 -500 -289 -212 -122 -392 -225 -400
-231 -8 -5 -67 -39 -130 -76 -63 -36 -158 -92 -210 -123 -52 -30 -113 -65
-135 -77 -22 -12 -98 -56 -170 -98 -71 -42 -134 -75 -140 -73 -15 5 -17 50 -2
68 17 21 85 64 352 217 127 73 237 137 245 142 8 5 58 33 110 63 52 30 149 86
215 124 66 39 217 126 335 193 118 68 233 134 255 147 163 101 503 292 515
290 8 -1 16 -10 18 -20z m1772 -19 c0 -10 -9 -35 -19 -56 -16 -31 -45 -52
-193 -136 -95 -55 -209 -121 -253 -146 -90 -53 -355 -207 -518 -300 -120 -69
-150 -74 -155 -25 -6 63 23 85 378 289 184 106 396 228 470 271 208 122 260
147 276 134 8 -6 14 -20 14 -31z m-4200 -93 c0 -36 -35 -68 -145 -131 -118
-68 -168 -97 -335 -193 -315 -183 -440 -252 -450 -246 -13 8 -13 41 0 65 9 16
28 30 115 80 391 226 603 349 655 380 146 86 160 90 160 45z m1083 -6 c-4 -4
-21 -11 -38 -15 -30 -7 -30 -7 -12 13 11 13 26 19 38 16 11 -3 17 -9 12 -14z
m-2108 -19 c-3 -5 -1 -10 6 -10 7 0 10 -2 7 -5 -3 -3 -13 -2 -22 1 -14 5 -15
9 -4 15 17 11 20 11 13 -1z m1962 -26 c-3 -3 -12 -4 -19 -1 -8 3 -5 6 6 6 11
1 17 -2 13 -5z m-1589 -49 c7 -35 -22 -65 -127 -126 -170 -99 -276 -161 -431
-249 -80 -46 -161 -93 -181 -106 -48 -30 -69 -33 -83 -12 -18 28 14 68 91 112
37 21 95 55 128 74 33 19 94 54 135 77 70 39 103 58 263 152 120 70 182 102
192 99 6 -1 12 -11 13 -21z m-490 1 c-10 -7 -15 -16 -11 -19 3 -4 1 -7 -5 -7
-18 0 -14 18 6 29 24 15 30 13 10 -3z m5546 8 c23 -9 20 -56 -6 -94 -26 -37
-201 -141 -232 -137 -34 4 -41 30 -20 73 15 32 39 51 123 102 109 65 110 66
135 56z m-3567 -30 c-3 -3 -12 -4 -19 -1 -8 3 -5 6 6 6 11 1 17 -2 13 -5z
m1589 -27 c9 -25 -15 -66 -53 -90 -21 -13 -157 -93 -303 -177 -146 -84 -308
-178 -360 -209 -52 -30 -114 -66 -138 -79 -23 -12 -83 -47 -133 -77 -51 -30
-93 -55 -95 -55 -3 0 -37 -20 -77 -44 -39 -24 -92 -54 -117 -68 -25 -14 -157
-90 -295 -170 -137 -80 -272 -157 -300 -172 -27 -16 -76 -44 -107 -63 -60 -36
-78 -36 -78 -2 0 46 6 51 185 154 50 29 180 104 290 167 110 63 245 141 300
173 55 32 127 74 160 92 33 19 65 38 70 42 6 5 35 22 65 38 42 23 304 174 420
243 8 5 58 33 110 63 94 54 235 135 360 208 71 41 88 46 96 26z m-1746 -42 c0
-2 -6 -8 -13 -14 -10 -8 -14 -7 -14 2 0 8 6 14 14 14 7 0 13 -1 13 -2z m-1963
-11 c-3 -3 -12 -4 -19 -1 -8 3 -5 6 6 6 11 1 17 -2 13 -5z m1281 -83 c8 -50
18 -43 -448 -311 -146 -84 -278 -161 -295 -171 -167 -100 -195 -109 -195 -65
0 38 26 61 147 131 143 82 270 156 423 246 234 137 345 199 355 196 6 -2 11
-14 13 -26z m577 9 c-3 -5 -12 -10 -18 -10 -7 0 -6 4 3 10 19 12 23 12 15 0z
m3380 -86 c19 -19 14 -54 -15 -93 -10 -14 -58 -49 -107 -77 -48 -28 -216 -125
-373 -216 -338 -196 -364 -210 -384 -202 -20 8 -21 56 -2 93 9 16 46 46 93 73
138 80 526 305 653 378 121 70 112 67 135 44z m-3580 -14 c3 -5 1 -10 -4 -10
-6 0 -11 5 -11 10 0 6 2 10 4 10 3 0 8 -4 11 -10z m35 -20 c-27 -21 -45 -26
-35 -9 6 9 41 27 55 28 3 0 -6 -8 -20 -19z m2006 -74 c-18 -33 -37 -47 -151
-106 -33 -17 -67 -37 -75 -44 -8 -7 -51 -33 -95 -58 -44 -25 -148 -84 -231
-131 -84 -48 -157 -87 -162 -87 -6 0 -12 -3 -14 -8 -3 -7 -119 -78 -188 -115
-19 -10 -44 -25 -55 -31 -11 -7 -47 -28 -80 -46 -33 -18 -78 -43 -101 -56 -42
-25 -63 -22 -41 5 11 14 10 14 -5 3 -10 -8 -23 -12 -30 -10 -7 3 7 13 30 24
22 10 43 24 46 31 5 11 -45 -13 -86 -42 -20 -13 -14 -25 14 -25 10 0 18 -3 18
-7 -1 -12 -89 -69 -141 -92 -25 -11 -56 -29 -70 -39 -50 -39 -162 -93 -173
-82 -5 5 -14 10 -20 10 -5 0 -1 -6 9 -14 18 -13 16 -15 -26 -37 -24 -13 -52
-28 -61 -34 -167 -101 -305 -175 -312 -168 -10 10 -7 25 4 18 6 -3 10 -1 10 4
0 6 7 11 15 11 8 0 15 5 15 10 0 12 -13 13 -24 3 -4 -5 -13 -8 -19 -8 -7 0
-11 -13 -10 -28 1 -20 -3 -27 -17 -27 -23 0 -21 42 5 70 26 29 104 70 110 59
4 -5 14 -8 23 -8 15 1 15 2 -1 6 -28 7 -8 24 21 17 25 -5 26 -4 9 9 -17 14
-17 15 0 20 22 7 129 67 208 116 33 21 89 53 125 72 36 18 67 36 70 40 3 4 34
22 70 40 36 19 71 40 78 46 7 7 18 13 23 13 5 0 33 16 64 35 30 20 63 39 73
42 9 4 36 19 59 35 23 15 49 28 57 28 9 0 16 5 16 11 0 6 9 8 23 4 16 -5 18
-4 8 4 -12 8 -9 12 15 22 16 7 40 20 54 29 14 10 50 30 80 47 30 17 109 62
175 100 66 38 140 81 165 95 25 14 90 51 145 83 55 32 120 69 145 83 25 13 69
40 98 59 29 19 60 32 68 29 8 -3 12 -2 9 3 -7 12 27 20 40 9 6 -5 3 -21 -9
-42z m1988 38 c26 -10 20 -65 -11 -101 -36 -42 -215 -145 -236 -137 -28 10
-30 42 -5 86 18 33 43 53 123 99 108 63 106 62 129 53z m-4256 -66 c-3 -7 -13
-15 -24 -17 -16 -3 -17 -1 -5 13 16 19 34 21 29 4z m31 -29 c-16 -10 -23 -4
-14 10 3 6 11 8 17 5 6 -4 5 -9 -3 -15z m5401 -9 c0 -5 -5 -10 -11 -10 -5 0
-7 5 -4 10 3 6 8 10 11 10 2 0 4 -4 4 -10z m81 -10 c23 -13 25 -30 3 -30 -8 0
-13 4 -9 9 3 6 -3 14 -12 20 -23 14 -7 14 18 1z m-6663 -29 c2 -12 -3 -32 -11
-44 -18 -28 -418 -257 -448 -257 -19 0 -21 4 -15 32 8 40 16 48 91 91 33 19
128 73 210 120 83 48 155 85 160 83 6 -1 11 -13 13 -25z m6528 -19 c-17 -16
-18 -16 -5 5 7 12 15 20 18 17 3 -2 -3 -12 -13 -22z m-7428 -49 c2 -45 -2 -69
-13 -87 -21 -31 -270 -177 -290 -170 -11 5 -15 23 -15 73 0 60 3 70 28 93 37
35 253 158 272 155 11 -2 16 -18 18 -64z m7650 31 c25 -24 30 -32 14 -24 -13
6 -26 18 -29 26 -3 8 -12 13 -20 10 -8 -3 -12 -2 -8 3 3 5 -1 12 -7 14 -10 4
-10 6 0 6 7 1 29 -15 50 -35z m-7 -31 c13 -15 12 -15 -8 -4 -24 12 -29 21 -14
21 5 0 15 -7 22 -17z m-1088 -14 c7 -11 4 -28 -10 -60 -18 -40 -31 -50 -131
-108 -93 -53 -115 -61 -127 -51 -20 16 -19 55 2 90 9 16 52 49 97 75 45 26 90
54 101 61 25 17 55 14 68 -7z m868 -26 c-12 -20 -14 -14 -5 12 4 9 9 14 11 11
3 -2 0 -13 -6 -23z m-3095 -18 c4 -8 1 -22 -6 -30 -7 -8 -9 -15 -5 -15 15 0
-45 -45 -92 -69 -27 -14 -80 -44 -119 -68 -39 -24 -73 -43 -77 -43 -3 0 -42
-22 -86 -49 -44 -28 -98 -58 -118 -67 -21 -10 -40 -21 -43 -24 -15 -19 -172
-100 -182 -94 -7 5 -8 3 -3 -6 6 -10 4 -12 -8 -7 -9 3 -16 3 -16 -1 3 -20 -3
-23 -18 -11 -15 12 -16 12 -10 -3 4 -13 1 -18 -9 -18 -11 0 -15 6 -11 20 4 16
0 20 -21 19 -15 -1 -20 -3 -11 -6 21 -5 31 -39 15 -51 -6 -5 -40 -26 -75 -46
-46 -26 -72 -36 -90 -32 -14 3 -20 3 -13 0 20 -9 14 -20 -25 -40 -21 -10 -67
-37 -101 -58 -53 -32 -66 -37 -74 -25 -8 11 -9 10 -4 -4 4 -11 -1 -20 -12 -24
-9 -4 -81 -44 -159 -90 -77 -45 -147 -84 -154 -85 -7 -2 -21 -10 -31 -19 -10
-9 -31 -22 -46 -30 -15 -8 -55 -31 -90 -52 -35 -21 -73 -42 -85 -48 -12 -5
-35 -18 -52 -29 -16 -11 -48 -29 -70 -41 -22 -11 -58 -31 -80 -45 -45 -27 -75
-31 -75 -9 0 35 26 64 83 95 34 18 64 36 67 40 3 4 30 20 60 35 30 15 78 43
107 61 28 18 54 30 57 27 3 -4 12 0 19 9 6 8 26 23 43 33 28 16 35 16 60 3 25
-12 33 -12 54 0 l25 14 -27 -6 c-14 -3 -37 -2 -49 2 -21 8 -17 13 47 50 88 53
101 53 95 4 -2 -9 3 -10 16 -3 10 5 29 14 43 19 22 10 20 10 -13 6 -35 -5 -38
-4 -35 17 2 15 21 32 63 54 33 17 79 43 102 58 23 15 77 46 120 70 43 24 127
72 186 106 59 34 113 58 120 55 7 -4 9 -3 4 1 -7 8 58 53 77 53 5 0 12 4 15 9
5 8 132 83 156 92 6 2 17 9 25 16 8 7 38 26 65 41 219 122 219 122 240 111 17
-9 18 -8 7 5 -14 18 0 28 133 100 80 43 84 43 91 23z m1534 -57 c-5 -17 -17
-39 -26 -49 -9 -10 -96 -64 -193 -120 -97 -56 -223 -130 -281 -164 -241 -142
-361 -206 -377 -203 -13 2 -19 14 -21 40 -5 55 37 91 228 201 91 52 257 147
370 213 292 168 272 159 292 134 13 -16 14 -27 8 -52z m-4180 52 c0 -5 -5 -10
-11 -10 -5 0 -7 5 -4 10 3 6 8 10 11 10 2 0 4 -4 4 -10z m5720 -65 c0 -7 5
-15 11 -17 7 -2 6 -8 -3 -15 -11 -9 -14 -8 -14 5 -1 9 -5 26 -9 36 -6 14 -5
17 3 12 7 -4 12 -13 12 -21z m150 -18 c0 -5 -4 -5 -10 -2 -5 3 -10 14 -10 23
0 15 2 15 10 2 5 -8 10 -19 10 -23z m285 5 c-3 -3 -11 0 -18 7 -9 10 -8 11 6
5 10 -3 15 -9 12 -12z m-6230 -12 c3 -6 -1 -7 -9 -4 -18 7 -21 14 -7 14 6 0
13 -4 16 -10z m5945 -18 c0 -5 -12 -14 -27 -21 l-28 -12 25 21 c29 22 30 23
30 12z m345 -10 c-3 -3 -11 0 -18 7 -9 10 -8 11 6 5 10 -3 15 -9 12 -12z
m-405 -35 c0 -2 -15 -14 -32 -27 l-33 -23 24 26 c21 23 41 35 41 24z m-5502
-61 c45 -26 84 -57 95 -74 16 -28 17 -98 17 -1070 0 -731 -3 -1048 -11 -1071
-14 -39 -33 -52 -429 -278 -173 -100 -430 -247 -570 -328 -140 -81 -321 -185
-401 -231 -118 -68 -154 -84 -187 -84 -38 0 -90 16 -102 31 -3 3 -23 16 -45
27 -61 32 -72 44 -84 87 -15 54 -15 2044 -1 2097 14 48 28 58 260 192 232 133
316 181 515 296 263 152 628 362 705 407 102 58 136 58 238 -1z m5512 40 c0
-2 -8 -10 -17 -17 -16 -13 -17 -12 -4 4 13 16 21 21 21 13z m535 -26 c3 -5 -4
-6 -15 -3 -11 3 -22 9 -25 13 -3 5 4 6 15 3 11 -3 22 -9 25 -13z m-1945 -5
c15 -18 6 -72 -18 -101 -9 -11 -37 -32 -62 -46 -25 -14 -169 -97 -320 -185
-151 -88 -295 -171 -320 -185 -25 -13 -116 -66 -204 -117 -172 -100 -199 -107
-204 -53 -6 61 26 88 248 212 36 20 121 70 190 110 69 40 157 91 195 113 39
22 99 56 135 77 36 20 108 62 160 92 113 66 172 98 181 98 4 0 12 -7 19 -15z
m-6096 -21 c3 -9 6 -40 6 -70 0 -50 -3 -57 -40 -94 -22 -22 -46 -40 -54 -40
-8 0 -16 -3 -18 -7 -8 -19 -178 -105 -194 -99 -21 8 -19 125 4 152 14 18 123
87 247 156 39 21 42 21 49 2z m8596 -4 c-8 -5 -19 -10 -25 -10 -5 0 -3 5 5 10
8 5 20 10 25 10 6 0 3 -5 -5 -10z m-993 -6 c-3 -3 -12 -4 -19 -1 -8 3 -5 6 6
6 11 1 17 -2 13 -5z m396 -1 c-7 -2 -19 -2 -25 0 -7 3 -2 5 12 5 14 0 19 -2
13 -5z m62 -3 c3 -5 2 -10 -4 -10 -5 0 -13 5 -16 10 -3 6 -2 10 4 10 5 0 13
-4 16 -10z m-555 -10 c0 -5 -5 -10 -11 -10 -5 0 -7 5 -4 10 3 6 8 10 11 10 2
0 4 -4 4 -10z m1161 -10 c13 -10 19 -19 12 -20 -6 0 -14 4 -18 10 -3 5 -13 7
-23 4 -15 -5 -15 -4 -2 6 12 9 9 10 -15 6 -22 -5 -26 -4 -15 4 22 14 35 12 61
-10z m-4334 -10 c4 -23 -12 -41 -31 -34 -15 6 -15 7 1 20 23 17 5 17 -26 0
l-24 -13 27 -7 c14 -3 26 -10 26 -15 0 -16 3 -14 -255 -161 -60 -34 -114 -65
-119 -68 -5 -3 -6 0 -3 5 4 6 0 14 -9 17 -23 9 -34 7 -34 -4 0 -5 7 -10 15
-10 24 0 17 -14 -17 -35 -18 -11 -35 -20 -38 -20 -3 0 -23 -12 -45 -26 -22
-14 -55 -35 -74 -45 -18 -10 -41 -23 -50 -29 -9 -5 -64 -37 -121 -69 -58 -32
-122 -70 -143 -83 -21 -13 -42 -21 -46 -18 -5 3 -11 2 -13 -2 -5 -11 -67 -55
-113 -80 -22 -11 -54 -29 -72 -40 -17 -10 -52 -30 -77 -45 -25 -14 -48 -22
-51 -17 -4 5 -14 9 -23 8 -14 0 -14 -2 2 -8 11 -4 15 -10 10 -14 -14 -8 -54 3
-54 14 0 13 -28 11 -36 -3 -4 -7 -3 -8 5 -4 6 4 22 -1 36 -12 22 -17 23 -20 7
-25 -21 -7 -128 -67 -207 -116 -33 -21 -89 -53 -125 -72 -36 -18 -67 -36 -70
-39 -5 -6 -69 -43 -162 -94 -27 -14 -68 -37 -92 -50 l-45 -25 -7 21 c-5 16 0
27 17 41 13 11 23 21 22 23 -2 2 0 4 3 3 4 0 10 3 13 8 11 16 70 54 139 90 37
20 74 41 82 48 35 30 116 64 138 59 32 -9 27 -27 -5 -20 -16 3 -22 3 -15 0 18
-8 15 -22 -5 -26 -11 -2 -14 -6 -7 -10 5 -4 23 4 40 17 l29 25 -25 20 c-18 14
-20 20 -9 20 8 0 21 -6 29 -12 12 -11 12 -10 2 3 -11 15 10 30 173 123 102 58
190 106 195 106 6 0 10 5 10 11 0 6 7 8 17 5 10 -4 14 -4 10 0 -8 8 15 23 114
76 114 62 133 73 147 86 7 6 17 12 22 12 5 0 45 22 89 49 44 28 98 58 118 67
21 10 40 21 43 24 16 19 192 110 201 104 7 -4 9 -3 6 3 -11 17 191 128 232
128 20 0 35 5 37 13 1 7 0 8 -3 2 -5 -12 -33 -14 -33 -2 0 12 193 121 210 119
8 -1 16 -9 17 -17z m3707 5 c11 -8 18 -17 15 -19 -2 -2 -15 4 -28 15 -27 22
-15 26 13 4z m-74 1 c0 -2 -7 -7 -16 -10 -8 -3 -12 -2 -9 4 6 10 25 14 25 6z
m220 -11 c0 -2 -6 -5 -13 -8 -8 -3 -14 1 -14 8 0 7 6 11 14 8 7 -3 13 -6 13
-8z m270 11 c0 -2 -8 -10 -17 -17 -16 -13 -17 -12 -4 4 13 16 21 21 21 13z
m-973 -28 c-3 -8 -6 -5 -6 6 -1 11 2 17 5 13 3 -3 4 -12 1 -19z m756 5 c-7 -2
-19 -2 -25 0 -7 3 -2 5 12 5 14 0 19 -2 13 -5z m-7033 -13 c0 -5 -2 -10 -4
-10 -3 0 -8 5 -11 10 -3 6 -1 10 4 10 6 0 11 -4 11 -10z m7497 -22 c-3 -8 -6
-5 -6 6 -1 11 2 17 5 13 3 -3 4 -12 1 -19z m-267 8 c0 -2 -7 -6 -15 -10 -8 -3
-15 -1 -15 4 0 6 7 10 15 10 8 0 15 -2 15 -4z m-946 -22 c3 -8 2 -12 -4 -9 -6
3 -10 10 -10 16 0 14 7 11 14 -7z m783 -36 c-3 -8 -6 -5 -6 6 -1 11 2 17 5 13
3 -3 4 -12 1 -19z m151 -13 c-3 -3 -9 2 -12 12 -6 14 -5 15 5 6 7 -7 10 -15 7
-18z m-473 -15 c-3 -5 -11 -10 -16 -10 -6 0 -7 5 -4 10 3 6 11 10 16 10 6 0 7
-4 4 -10z m65 0 c-8 -5 -22 -9 -30 -9 -10 0 -8 3 5 9 27 12 43 12 25 0z
m-1692 -43 c6 -49 -30 -88 -136 -150 -54 -31 -106 -57 -115 -57 -28 0 -39 35
-24 72 19 43 37 58 143 118 99 56 127 60 132 17z m1987 12 c11 -17 -1 -21 -15
-4 -8 9 -8 15 -2 15 6 0 14 -5 17 -11z m-908 -81 c-3 -8 -6 -5 -6 6 -1 11 2
17 5 13 3 -3 4 -12 1 -19z m1249 -44 c-9 -8 -11 -9 -6 -2 6 7 11 21 11 33 1
18 2 18 6 1 3 -10 -2 -25 -11 -32z m-8662 -10 c12 -5 16 -21 16 -70 0 -51 -4
-68 -22 -88 -32 -36 -264 -167 -283 -160 -19 8 -21 108 -3 146 9 18 55 50 143
101 71 42 131 76 132 76 1 1 8 -2 17 -5z m8595 -52 c-10 -7 -33 -14 -51 -17
-30 -5 -29 -4 7 8 30 10 39 18 37 31 -3 15 -1 16 11 5 13 -12 12 -16 -4 -27z
m-1172 -4 c-3 -8 -6 -5 -6 6 -1 11 2 17 5 13 3 -3 4 -12 1 -19z m-869 4 c22
-14 22 -54 1 -89 -24 -39 -212 -155 -244 -151 -26 4 -31 47 -10 87 12 25 111
101 130 101 3 0 26 13 53 30 52 33 52 33 70 22z m-2288 -62 c0 -5 -5 -10 -11
-10 -5 0 -7 5 -4 10 3 6 8 10 11 10 2 0 4 -4 4 -10z m1610 -10 c8 -16 6 -30
-8 -63 -20 -46 -8 -38 -432 -283 -69 -39 -172 -99 -230 -132 -57 -34 -105 -60
-106 -59 -1 1 1 33 5 70 l6 69 270 155 c149 85 311 179 360 208 99 60 119 65
135 35z m-1693 -66 c-3 -3 -12 -4 -19 -1 -8 3 -5 6 6 6 11 1 17 -2 13 -5z
m3313 -20 c0 -8 -19 -13 -24 -6 -3 5 1 9 9 9 8 0 15 -2 15 -3z m937 -56 c-3
-7 -5 -2 -5 12 0 14 2 19 5 13 2 -7 2 -19 0 -25z m-4089 -34 c4 -26 -40 -74
-98 -106 -25 -14 -61 -35 -81 -46 -19 -10 -62 -27 -94 -37 -92 -26 -174 -72
-240 -134 -39 -38 -119 -92 -230 -156 -93 -54 -197 -114 -230 -133 -33 -19
-73 -42 -90 -52 -32 -18 -439 -255 -465 -270 -8 -5 -58 -33 -110 -63 -52 -30
-162 -93 -244 -141 -81 -48 -155 -85 -162 -82 -23 9 -16 51 14 78 15 13 146
94 292 178 146 84 308 178 360 209 52 30 111 64 130 74 19 11 71 41 115 67 76
45 215 126 315 182 55 31 380 219 550 319 69 40 139 80 155 88 17 9 41 24 55
34 31 22 54 18 58 -9z m1770 -49 c5 -61 -22 -84 -274 -230 -132 -76 -264 -152
-294 -170 -215 -127 -373 -215 -378 -211 -3 3 -13 28 -22 56 l-17 49 246 142
c364 209 622 359 656 380 17 10 41 17 55 16 20 -2 26 -8 28 -32z m-6098 -62
c-1 -80 -11 -96 -94 -144 -231 -136 -226 -135 -226 -35 0 72 12 89 85 132 249
143 235 140 235 47z m7737 31 c-3 -3 -12 -4 -19 -1 -8 3 -5 6 6 6 11 1 17 -2
13 -5z m-42 -22 c-3 -3 -11 0 -18 7 -9 10 -8 11 6 5 10 -3 15 -9 12 -12z m150
8 c-3 -5 -12 -10 -18 -10 -7 0 -6 4 3 10 19 12 23 12 15 0z m-118 -26 c-3 -3
-12 -4 -19 -1 -8 3 -5 6 6 6 11 1 17 -2 13 -5z m-4160 -100 c-3 -3 -12 -4 -19
-1 -8 3 -5 6 6 6 11 1 17 -2 13 -5z m2737 -20 c32 -12 12 -85 -34 -121 -33
-27 -188 -113 -203 -113 -44 0 -43 71 2 113 30 29 190 126 208 127 6 0 18 -3
27 -6z m-3019 -104 c3 -5 1 -10 -4 -10 -6 0 -11 5 -11 10 0 6 2 10 4 10 3 0 8
-4 11 -10z m3268 -121 c7 -12 5 -27 -9 -55 -15 -32 -39 -51 -124 -102 -116
-69 -143 -74 -148 -27 -5 50 33 92 138 151 96 55 125 62 143 33z m1497 -119
c0 -5 -4 -10 -10 -10 -5 0 -10 5 -10 10 0 6 5 10 10 10 6 0 10 -4 10 -10z
m-5220 -24 c0 -2 -9 -6 -20 -9 -11 -3 -18 -1 -14 4 5 9 34 13 34 5z m-2846
-112 c12 -5 16 -21 16 -73 0 -60 -3 -70 -27 -93 -36 -33 -253 -158 -276 -158
-14 0 -17 10 -17 68 0 48 5 73 18 89 12 16 223 151 269 172 1 1 8 -2 17 -5z
m8336 2 c0 -2 -9 -6 -20 -9 -11 -3 -18 -1 -14 4 5 9 34 13 34 5z m276 -21
c-11 -8 -24 -15 -30 -15 -5 0 -1 7 10 15 10 8 24 14 29 14 6 0 1 -6 -9 -14z
m-276 -4 c0 -5 -7 -12 -16 -15 -14 -5 -15 -4 -4 9 14 17 20 19 20 6z m-5740
-5 c0 -3 -4 -8 -10 -11 -5 -3 -10 -1 -10 4 0 6 5 11 10 11 6 0 10 -2 10 -4z
m-180 -140 c14 -18 14 -19 -8 -7 -12 7 -20 17 -16 22 3 6 7 9 8 7 1 -2 8 -12
16 -22z m-75 -56 c3 -5 1 -10 -4 -10 -6 0 -11 5 -11 10 0 6 2 10 4 10 3 0 8
-4 11 -10z m1292 -52 c-3 -8 -6 -5 -6 6 -1 11 2 17 5 13 3 -3 4 -12 1 -19z
m18 -28 c-3 -5 -12 -10 -18 -10 -7 0 -6 4 3 10 19 12 23 12 15 0z m-3637 -110
c3 -60 0 -68 -25 -95 -25 -27 -75 -59 -140 -89 -13 -6 -23 -14 -23 -18 0 -5
-6 -8 -13 -8 -7 0 -29 -11 -49 -25 -54 -37 -68 -26 -68 53 0 63 1 66 39 101
21 20 63 48 93 63 29 15 76 41 103 57 71 43 79 39 83 -39z m3297 -51 c-3 -4
-12 -6 -20 -3 -8 4 -13 10 -10 15 3 4 12 6 20 3 8 -4 13 -10 10 -15z m242
-111 c-3 -8 -6 -5 -6 6 -1 11 2 17 5 13 3 -3 4 -12 1 -19z m-57 -38 c0 -5 -4
-10 -9 -10 -6 0 -13 5 -16 10 -3 6 1 10 9 10 9 0 16 -4 16 -10z m47 -12 c-3
-8 -6 -5 -6 6 -1 11 2 17 5 13 3 -3 4 -12 1 -19z m-3527 -138 c0 -40 -4 -70
-10 -70 -5 0 -10 -6 -10 -12 -1 -23 -262 -173 -285 -164 -19 7 -21 102 -3 141
10 22 61 56 228 153 19 11 45 21 58 21 21 1 22 -3 22 -69z m2864 16 c-21 -15
-30 -14 -19 3 3 6 14 11 23 11 13 0 13 -2 -4 -14z m403 -22 c-3 -3 -12 -4 -19
-1 -8 3 -5 6 6 6 11 1 17 -2 13 -5z m-113 -35 c-8 -13 -21 -11 -27 5 -4 10 0
12 14 9 10 -3 16 -9 13 -14z m-34 -9 c0 -5 -8 -10 -17 -10 -15 0 -16 2 -3 10
19 12 20 12 20 0z m-50 -25 c-7 -8 -17 -15 -23 -15 -6 0 -2 7 9 15 25 19 30
19 14 0z m-650 -115 c0 -5 -5 -10 -11 -10 -5 0 -7 5 -4 10 3 6 8 10 11 10 2 0
4 -4 4 -10z m-2422 -148 c3 -70 -14 -106 -65 -132 -15 -8 -71 -41 -124 -73
-117 -70 -129 -69 -129 14 0 92 -3 89 250 237 55 33 65 26 68 -46z m2719 12
c-3 -3 -12 -4 -19 -1 -8 3 -5 6 6 6 11 1 17 -2 13 -5z m-732 -154 c-3 -5 -11
-10 -16 -10 -6 0 -7 5 -4 10 3 6 11 10 16 10 6 0 7 -4 4 -10z m1955 -40 c0
-11 -4 -22 -10 -25 -6 -3 -7 1 -4 10 4 8 1 22 -6 30 -11 13 -10 14 4 9 9 -3
16 -14 16 -24z m-1743 -76 c-3 -3 -12 -4 -19 -1 -8 3 -5 6 6 6 11 1 17 -2 13
-5z m-437 -14 c0 -5 -4 -10 -10 -10 -5 0 -10 5 -10 10 0 6 5 10 10 10 6 0 10
-4 10 -10z m-50 -30 c0 -5 -4 -10 -10 -10 -5 0 -12 0 -15 0 -3 0 -14 -9 -26
-21 -22 -22 -33 -21 -24 3 3 8 18 19 33 25 36 14 42 15 42 3z m280 -100 c0 -5
-5 -10 -11 -10 -5 0 -7 5 -4 10 3 6 8 10 11 10 2 0 4 -4 4 -10z m-542 -25 c-3
-3 -9 2 -12 12 -6 14 -5 15 5 6 7 -7 10 -15 7 -18z m422 -60 c0 -2 -6 -5 -13
-8 -8 -3 -14 1 -14 8 0 7 6 11 14 8 7 -3 13 -6 13 -8z m-1872 -193 c2 -48 -1
-69 -15 -88 -22 -30 -272 -174 -290 -167 -9 3 -13 25 -13 65 0 65 19 109 54
127 23 11 116 64 186 105 65 38 74 33 78 -42z m1129 42 c2 -6 -3 -11 -10 -11
-8 0 -14 6 -14 14 0 15 19 12 24 -3z m400 -10 c-3 -3 -12 -4 -19 -1 -8 3 -5 6
6 6 11 1 17 -2 13 -5z m-477 -38 c0 -3 -4 -8 -10 -11 -5 -3 -10 -1 -10 4 0 6
5 11 10 11 6 0 10 -2 10 -4z m1920 -25 c0 -6 -4 -12 -8 -15 -5 -3 -9 1 -9 9 0
8 4 15 9 15 4 0 8 -4 8 -9z m-1566 -7 c20 -8 21 -24 2 -24 -8 0 -16 7 -20 15
-6 17 -4 18 18 9z m1496 -55 c0 -14 -17 -10 -23 5 -4 10 -1 13 9 9 7 -3 14 -9
14 -14z m-1530 7 c0 -9 -30 -14 -35 -6 -4 6 3 10 14 10 12 0 21 -2 21 -4z
m-582 -38 c2 -16 -6 -35 -20 -51 -26 -28 -421 -257 -444 -257 -9 0 -14 11 -14
30 0 34 25 63 81 95 19 10 59 33 89 51 30 17 107 61 170 98 63 36 119 65 125
63 5 -2 11 -15 13 -29z m2052 18 c0 -7 -9 -16 -20 -19 -25 -6 -26 8 -2 22 22
13 22 13 22 -3z m-260 -150 c0 -2 -7 -7 -16 -10 -8 -3 -12 -2 -9 4 6 10 25 14
25 6z m-2580 -89 c0 -71 -24 -110 -86 -142 -22 -11 -75 -41 -119 -68 -43 -26
-86 -46 -95 -45 -11 2 -16 19 -18 66 -2 51 1 68 18 92 12 17 26 30 31 30 5 0
26 11 47 24 76 51 197 113 210 109 8 -3 12 -26 12 -66z m2878 -6 l-23 -52
-244 -140 c-247 -142 -260 -147 -261 -98 0 9 8 26 18 38 13 16 363 224 484
288 15 8 31 19 35 26 4 7 8 8 10 0 2 -6 -7 -34 -19 -62z m-363 49 c-3 -5 -10
-10 -16 -10 -5 0 -9 5 -9 10 0 6 7 10 16 10 8 0 12 -4 9 -10z m-40 -10 c-3 -5
-11 -10 -16 -10 -6 0 -7 5 -4 10 3 6 11 10 16 10 6 0 7 -4 4 -10z m-235 -181
c0 -6 -4 -7 -10 -4 -5 3 -10 11 -10 16 0 6 5 7 10 4 6 -3 10 -11 10 -16z
m-235 -112 c-11 -6 -21 -5 -28 3 -9 8 -7 9 7 4 13 -5 17 -4 12 4 -5 8 -2 10
10 5 15 -6 15 -7 -1 -16z m-2007 -84 c4 -77 -10 -101 -81 -142 -29 -16 -87
-50 -131 -74 -43 -25 -84 -43 -92 -40 -10 4 -14 23 -14 65 0 68 20 112 59 128
15 6 71 37 126 70 55 32 107 58 115 57 11 -2 16 -18 18 -64z m1947 57 c-3 -5
-11 -10 -16 -10 -6 0 -7 5 -4 10 3 6 11 10 16 10 6 0 7 -4 4 -10z m-60 -59 c3
-5 2 -12 -3 -15 -5 -3 -9 1 -9 9 0 17 3 19 12 6z m-1885 -350 c0 -82 -11 -96
-122 -157 -40 -23 -94 -53 -121 -68 -26 -16 -54 -25 -62 -22 -18 7 -21 102 -4
139 6 14 46 45 92 72 45 27 102 61 127 76 25 15 55 28 68 28 21 1 22 -3 22
-68z m1200 -45 c0 -3 -4 -8 -10 -11 -5 -3 -10 -1 -10 4 0 6 5 11 10 11 6 0 10
-2 10 -4z m-103 -41 c-6 -15 -47 -22 -47 -7 0 8 42 30 49 25 2 -1 1 -9 -2 -18z
m48 -5 c-3 -5 -10 -10 -16 -10 -5 0 -9 5 -9 10 0 6 7 10 16 10 8 0 12 -4 9
-10z m-103 -42 c-6 -6 -9 0 -9 18 0 23 1 24 9 10 7 -12 7 -21 0 -28z m-252
-138 c0 -21 -9 -36 -33 -55 -49 -40 -409 -245 -429 -245 -22 0 -25 47 -5 72 6
9 57 42 112 74 210 119 241 138 275 160 19 12 45 23 58 23 18 1 22 -4 22 -29z
m0 -239 c0 -38 -25 -61 -145 -130 -55 -32 -143 -83 -195 -114 -116 -68 -134
-72 -138 -34 -4 34 31 69 114 115 33 18 120 68 194 111 74 44 143 80 153 80
12 1 17 -7 17 -28z m-792 -159 c2 -49 -1 -68 -16 -90 -24 -33 -268 -176 -288
-168 -10 4 -14 23 -14 67 0 70 20 107 72 133 18 9 74 41 123 70 50 30 97 54
105 53 11 -2 16 -18 18 -65z m-885 -1189 c-3 -7 -6 -13 -8 -13 -2 0 -5 6 -8
13 -3 8 1 14 8 14 7 0 11 -6 8 -14z m-39 -1 c3 -5 -1 -9 -9 -9 -8 0 -12 4 -9
9 3 4 7 8 9 8 2 0 6 -4 9 -8z"/>
<path d="M6783 14203 c-7 -3 -13 -9 -13 -15 0 -6 7 -4 17 3 14 12 16 12 11 -1
-3 -9 -17 -15 -38 -15 -19 0 -35 -6 -38 -14 -2 -7 -18 -21 -35 -32 l-31 -18
37 3 c49 4 104 34 111 60 6 23 -3 36 -21 29z m-16 -41 c8 -5 2 -13 -18 -24
-24 -14 -29 -15 -29 -3 0 8 7 15 16 15 8 0 12 5 9 10 -7 12 5 13 22 2z"/>
<path d="M6832 14190 c-7 -11 -10 -20 -7 -20 3 0 14 9 25 20 12 12 15 20 7 20
-7 0 -18 -9 -25 -20z"/>
<path d="M6617 14082 c13 -13 22 -16 31 -9 15 12 14 12 -21 21 -27 6 -27 6
-10 -12z"/>
<path d="M6590 14060 c8 -5 20 -10 25 -10 6 0 3 5 -5 10 -8 5 -19 10 -25 10
-5 0 -3 -5 5 -10z"/>
<path d="M6565 14040 c3 -5 11 -10 16 -10 6 0 7 5 4 10 -3 6 -11 10 -16 10 -6
0 -7 -4 -4 -10z"/>
<path d="M6508 14033 c-10 -2 -18 -9 -18 -14 0 -6 10 -5 23 2 37 20 36 23 -5
12z"/>
<path d="M6460 14010 c-8 -5 -12 -12 -9 -15 4 -3 12 1 19 10 14 17 11 19 -10
5z"/>
<path d="M6480 13986 c-8 -8 -33 -24 -55 -35 -22 -12 -34 -21 -27 -21 7 0 22
6 35 13 32 18 80 57 70 57 -5 0 -15 -6 -23 -14z"/>
<path d="M6395 13974 c-16 -8 -32 -18 -35 -21 -9 -10 44 9 65 23 26 19 7 18
-30 -2z"/>
<path d="M6297 13919 c-19 -15 -26 -27 -22 -40 4 -13 2 -19 -9 -19 -8 0 -17 8
-19 18 -4 15 -5 15 -6 -2 -1 -15 -4 -16 -16 -6 -10 8 -15 9 -15 1 0 -13 44
-25 65 -17 9 3 15 11 14 18 -4 36 1 41 39 35 35 -6 36 -5 13 7 -23 13 -23 14
-5 19 11 3 13 5 4 6 -8 0 -28 -9 -43 -20z"/>
<path d="M6365 13920 c3 -5 11 -10 16 -10 6 0 7 5 4 10 -3 6 -11 10 -16 10 -6
0 -7 -4 -4 -10z"/>
<path d="M6305 13880 c-3 -5 -2 -10 4 -10 5 0 13 5 16 10 3 6 2 10 -4 10 -5 0
-13 -4 -16 -10z"/>
<path d="M6170 13850 c-9 -6 -10 -10 -3 -10 6 0 15 5 18 10 8 12 4 12 -15 0z"/>
<path d="M6208 13841 c20 -12 -12 -23 -44 -15 -15 4 -24 2 -24 -6 0 -7 7 -10
16 -6 11 4 15 2 11 -8 -4 -11 6 -9 37 7 31 16 38 24 27 29 -23 10 -38 9 -23
-1z"/>
<path d="M6025 13759 c-11 -17 1 -21 15 -4 8 9 8 15 2 15 -6 0 -14 -5 -17 -11z"/>
<path d="M6065 13746 c-16 -6 -25 -15 -20 -18 6 -3 24 3 40 13 34 22 24 24
-20 5z"/>
<path d="M6003 13728 c3 -9 1 -18 -6 -21 -6 -2 -7 -6 -2 -9 6 -3 15 0 22 7 10
10 9 16 -4 27 -14 11 -16 11 -10 -4z"/>
<path d="M5925 13700 c-16 -7 -17 -9 -3 -9 9 -1 22 -3 30 -4 7 -2 10 -2 5 0
-4 3 -5 9 -1 14 6 11 -4 11 -31 -1z"/>
<path d="M5880 13660 c20 -13 33 -13 25 0 -3 6 -14 10 -23 10 -15 0 -15 -2 -2
-10z"/>
<path d="M5805 13635 c-22 -13 -36 -25 -31 -25 10 0 76 39 76 46 0 7 -3 5 -45
-21z"/>
<path d="M5868 13633 c7 -3 16 -2 19 1 4 3 -2 6 -13 5 -11 0 -14 -3 -6 -6z"/>
<path d="M5760 13570 c-13 -11 -19 -20 -14 -20 13 1 61 40 48 40 -6 0 -21 -9
-34 -20z"/>
<path d="M5586 13503 c-6 -14 -5 -15 5 -6 7 7 10 15 7 18 -3 3 -9 -2 -12 -12z"/>
<path d="M5540 13470 c0 -5 5 -10 10 -10 6 0 10 5 10 10 0 6 -4 10 -10 10 -5
0 -10 -4 -10 -10z"/>
<path d="M5520 13439 c12 -9 11 -10 -7 -6 -13 3 -23 1 -23 -4 0 -10 21 -12 44
-3 20 7 11 24 -12 24 -15 0 -15 -2 -2 -11z"/>
<path d="M5455 13410 c-3 -5 1 -10 9 -10 9 0 16 5 16 10 0 6 -4 10 -9 10 -6 0
-13 -4 -16 -10z"/>
<path d="M5420 13385 c7 -9 15 -13 17 -11 7 7 -7 26 -19 26 -6 0 -6 -6 2 -15z"/>
<path d="M5325 13360 c-3 -5 -1 -10 4 -10 6 0 11 5 11 10 0 6 -2 10 -4 10 -3
0 -8 -4 -11 -10z"/>
<path d="M5350 13338 c0 -11 12 -10 30 2 12 7 10 9 -8 7 -12 0 -22 -5 -22 -9z"/>
<path d="M5307 13316 c-4 -10 0 -12 14 -9 22 6 26 23 5 23 -8 0 -16 -6 -19
-14z"/>
<path d="M5195 13291 c-10 -17 12 -21 25 -6 10 12 10 15 -3 15 -9 0 -18 -4
-22 -9z"/>
<path d="M5170 13270 c0 -5 6 -10 14 -10 8 0 16 -5 18 -10 2 -7 11 -4 23 5 20
16 20 16 -2 10 -12 -3 -24 -1 -28 5 -8 13 -25 13 -25 0z"/>
<path d="M5097 13231 c-15 -10 -30 -21 -34 -25 -12 -11 30 6 47 19 8 7 22 15
30 18 13 5 13 5 0 5 -8 1 -27 -7 -43 -17z"/>
<path d="M5105 13200 c-15 -16 -15 -20 -3 -20 8 0 23 9 33 20 15 16 15 20 3
20 -8 0 -23 -9 -33 -20z"/>
<path d="M5037 13189 c7 -7 15 -10 18 -7 3 3 -2 9 -12 12 -14 6 -15 5 -6 -5z"/>
<path d="M4940 13140 c-9 -6 -10 -10 -3 -10 6 0 15 5 18 10 8 12 4 12 -15 0z"/>
<path d="M4974 13121 c-5 -5 -18 -11 -29 -14 l-20 -5 20 -1 c22 -1 52 15 44
23 -3 3 -10 2 -15 -3z"/>
<path d="M6850 13959 c0 -5 5 -7 10 -4 6 3 10 8 10 11 0 2 -4 4 -10 4 -5 0
-10 -5 -10 -11z"/>
<path d="M6783 13933 c-18 -7 -16 -16 8 -31 18 -12 19 -11 10 6 -6 11 -7 22
-4 26 7 7 4 7 -14 -1z"/>
<path d="M6815 13930 c3 -5 10 -10 16 -10 5 0 9 5 9 10 0 6 -7 10 -16 10 -8 0
-12 -4 -9 -10z"/>
<path d="M6740 13901 c0 -5 7 -12 16 -15 24 -9 27 -7 10 9 -17 17 -26 19 -26
6z"/>
<path d="M6725 13870 c10 -11 20 -18 23 -16 5 6 -23 36 -34 36 -4 0 1 -9 11
-20z"/>
<path d="M6690 13866 c0 -3 9 -10 20 -16 11 -6 20 -8 20 -6 0 3 -9 10 -20 16
-11 6 -20 8 -20 6z"/>
<path d="M6647 13823 c6 -16 5 -16 38 1 l28 15 -35 -2 c-24 -1 -34 -6 -31 -14z"/>
<path d="M6588 13814 c-3 -3 -4 -13 -1 -23 4 -16 8 -17 29 -7 26 12 34 29 9
20 -8 -4 -15 -1 -15 5 0 12 -13 15 -22 5z"/>
<path d="M6525 13780 c-3 -5 -2 -10 4 -10 5 0 13 5 16 10 3 6 2 10 -4 10 -5 0
-13 -4 -16 -10z"/>
<path d="M6500 13761 c0 -6 -7 -11 -16 -11 -8 0 -32 -11 -52 -25 -47 -32 -41
-31 32 4 32 16 53 32 47 35 -6 4 -11 2 -11 -3z"/>
<path d="M6514 13734 c-18 -14 -18 -14 6 -3 31 14 36 19 24 19 -6 0 -19 -7
-30 -16z"/>
<path d="M6421 13691 c-9 -6 -10 -11 -2 -15 6 -4 18 0 27 8 12 12 12 16 2 16
-7 0 -19 -4 -27 -9z"/>
<path d="M6350 13655 c-10 -12 -10 -15 3 -15 8 0 20 7 27 15 10 12 10 15 -3
15 -8 0 -20 -7 -27 -15z"/>
<path d="M6270 13630 c-14 -10 -27 -17 -30 -15 -3 2 -12 -1 -20 -7 -13 -8 -12
-9 2 -5 9 3 19 -1 22 -9 3 -8 11 -14 18 -14 9 0 8 3 -2 10 -13 8 -12 11 5 24
23 18 45 20 45 6 0 -5 -7 -10 -15 -10 -8 0 -15 -4 -15 -10 0 -15 15 -12 33 8
15 16 15 19 -2 29 -13 8 -23 7 -41 -7z"/>
<path d="M6200 13569 c0 -5 5 -7 10 -4 6 3 10 8 10 11 0 2 -4 4 -10 4 -5 0
-10 -5 -10 -11z"/>
<path d="M6135 13553 c-19 -15 -19 -15 -1 -9 11 4 23 1 27 -6 4 -7 11 -9 15
-5 4 4 1 14 -7 22 -12 12 -17 12 -34 -2z"/>
<path d="M6100 13520 c0 -5 7 -7 15 -4 8 4 15 8 15 10 0 2 -7 4 -15 4 -8 0
-15 -4 -15 -10z"/>
<path d="M5980 13470 c-14 -11 -20 -20 -15 -19 13 0 50 28 44 33 -2 3 -15 -4
-29 -14z"/>
<path d="M6032 13481 c2 -8 -8 -20 -22 -28 -14 -7 -20 -13 -15 -14 6 0 1 -4
-10 -9 -13 -6 -15 -9 -5 -9 8 -1 29 10 45 23 25 20 28 27 17 38 -11 11 -13 11
-10 -1z"/>
<path d="M5940 13440 c0 -5 5 -10 11 -10 5 0 7 5 4 10 -3 6 -8 10 -11 10 -2 0
-4 -4 -4 -10z"/>
<path d="M5879 13414 c-15 -8 -33 -22 -40 -31 -12 -15 -10 -15 16 2 17 10 41
25 55 32 14 7 18 12 10 12 -8 -1 -27 -7 -41 -15z"/>
<path d="M5925 13400 c-13 -6 -15 -9 -5 -9 8 0 22 4 30 9 18 12 2 12 -25 0z"/>
<path d="M5755 13340 c3 -5 8 -10 11 -10 2 0 4 5 4 10 0 6 -5 10 -11 10 -5 0
-7 -4 -4 -10z"/>
<path d="M5800 13335 c-14 -8 -20 -14 -14 -15 5 0 19 7 30 15 24 18 16 19 -16
0z"/>
<path d="M5735 13320 c3 -5 11 -10 16 -10 6 0 7 5 4 10 -3 6 -11 10 -16 10 -6
0 -7 -4 -4 -10z"/>
<path d="M5710 13300 c8 -5 20 -10 25 -10 6 0 3 5 -5 10 -8 5 -19 10 -25 10
-5 0 -3 -5 5 -10z"/>
<path d="M5660 13285 c-10 -13 -9 -15 9 -15 11 0 21 4 21 9 0 18 -18 21 -30 6z"/>
<path d="M5616 13235 c-25 -19 -9 -19 24 0 14 8 19 14 10 14 -8 0 -24 -6 -34
-14z"/>
<path d="M5542 13220 c-26 -14 -29 -19 -15 -23 10 -2 27 -8 37 -13 13 -5 17
-4 13 3 -4 6 -1 14 5 17 7 3 0 3 -17 0 -28 -4 -29 -4 -7 7 12 7 22 16 22 21 0
4 -1 7 -2 7 -2 -1 -18 -9 -36 -19z"/>
<path d="M5421 13150 c-13 -11 -19 -20 -14 -20 6 0 18 9 28 20 23 25 17 25
-14 0z"/>
<path d="M5435 13130 c-3 -5 -3 -10 2 -10 4 0 1 -5 -7 -11 -12 -8 -12 -10 -1
-7 8 2 15 12 17 21 3 19 -2 22 -11 7z"/>
<path d="M5380 13120 c0 -5 5 -10 11 -10 5 0 7 5 4 10 -3 6 -8 10 -11 10 -2 0
-4 -4 -4 -10z"/>
<path d="M5290 13059 c0 -5 -4 -8 -8 -5 -4 2 -13 1 -20 -3 -8 -4 -5 -11 9 -20
16 -9 19 -10 13 0 -5 9 -2 10 10 6 10 -4 15 -3 11 3 -3 6 2 10 12 10 15 0 16
2 3 10 -20 13 -30 12 -30 -1z"/>
<path d="M5240 13020 c20 -13 33 -13 25 0 -3 6 -14 10 -23 10 -15 0 -15 -2 -2
-10z"/>
<path d="M5190 13011 c0 -8 41 -23 47 -17 2 1 -8 8 -22 14 -14 6 -25 8 -25 3z"/>
<path d="M5155 12990 c-3 -5 -2 -10 4 -10 5 0 13 5 16 10 3 6 2 10 -4 10 -5 0
-13 -4 -16 -10z"/>
<path d="M5119 12978 c-7 -25 -5 -36 7 -31 8 3 14 0 14 -7 0 -6 5 -8 11 -4 8
4 4 11 -11 19 -17 9 -19 14 -9 18 10 4 10 6 2 6 -7 1 -13 0 -14 -1z"/>
<path d="M5019 12913 c-13 -16 -12 -17 4 -4 9 7 17 15 17 17 0 8 -8 3 -21 -13z"/>
<path d="M5060 12920 c18 -11 57 -13 63 -2 3 4 -14 8 -36 10 -31 1 -38 -1 -27
-8z"/>
<path d="M5034 12899 c-3 -6 -15 -8 -26 -6 -23 6 -48 -1 -48 -14 0 -5 7 -9 16
-9 9 0 12 5 8 12 -5 8 -2 9 10 5 10 -4 21 -7 24 -7 4 0 -6 -8 -23 -19 -17 -10
-33 -14 -36 -8 -4 5 -18 3 -35 -6 l-29 -16 38 3 c38 3 107 34 107 48 0 5 7 8
16 8 8 0 12 5 9 10 -8 13 -22 13 -31 -1z"/>
<path d="M4871 12794 c6 -7 17 -10 25 -7 19 7 8 22 -16 20 -14 -1 -16 -5 -9
-13z"/>
<path d="M4845 12780 c3 -5 8 -10 11 -10 2 0 4 5 4 10 0 6 -5 10 -11 10 -5 0
-7 -4 -4 -10z"/>
<path d="M6740 13628 c-26 -13 -30 -18 -14 -18 11 0 25 5 32 12 8 8 15 8 27
-2 18 -15 20 -4 3 13 -10 10 -21 8 -48 -5z"/>
<path d="M6815 13640 c3 -5 8 -10 11 -10 2 0 4 5 4 10 0 6 -5 10 -11 10 -5 0
-7 -4 -4 -10z"/>
<path d="M6675 13559 c-27 -16 -44 -29 -37 -29 13 0 92 47 92 55 0 6 4 8 -55
-26z"/>
<path d="M6615 13564 c-20 -15 -12 -17 19 -5 11 4 15 10 10 13 -5 4 -18 0 -29
-8z"/>
<path d="M6536 13517 c-20 -16 -27 -28 -21 -37 6 -10 10 -8 16 8 5 12 16 22
24 22 9 0 14 4 10 9 -3 5 3 12 12 14 13 3 14 5 3 6 -8 0 -28 -10 -44 -22z"/>
<path d="M6545 13480 c-3 -5 -2 -10 4 -10 5 0 13 5 16 10 3 6 2 10 -4 10 -5 0
-13 -4 -16 -10z"/>
<path d="M6483 13453 c9 -2 23 -2 30 0 6 3 -1 5 -18 5 -16 0 -22 -2 -12 -5z"/>
<path d="M6392 13406 c7 -8 15 -12 17 -11 5 6 -10 25 -20 25 -5 0 -4 -6 3 -14z"/>
<path d="M6345 13390 c-3 -5 -2 -10 4 -10 5 0 13 5 16 10 3 6 2 10 -4 10 -5 0
-13 -4 -16 -10z"/>
<path d="M6298 13373 c17 -7 15 -23 -3 -23 -8 0 -15 5 -15 10 0 14 -11 12 -34
-5 -19 -15 -19 -15 -1 -29 16 -12 23 -12 44 2 13 9 30 17 38 18 8 2 18 6 21
10 4 4 -1 5 -10 1 -9 -3 -19 0 -22 9 -3 8 -11 14 -18 13 -10 0 -10 -2 0 -6z
m-18 -33 c0 -5 -7 -10 -15 -10 -8 0 -15 5 -15 10 0 6 7 10 15 10 8 0 15 -4 15
-10z"/>
<path d="M6180 13305 c-10 -12 -10 -15 3 -15 8 0 20 7 27 15 10 12 10 15 -3
15 -8 0 -20 -7 -27 -15z"/>
<path d="M6125 13280 c3 -5 -2 -10 -11 -10 -10 0 -15 -3 -11 -6 9 -9 48 6 42
17 -4 5 -11 9 -16 9 -6 0 -7 -4 -4 -10z"/>
<path d="M6160 13260 c-9 -6 -10 -10 -3 -10 6 0 15 5 18 10 8 12 4 12 -15 0z"/>
<path d="M6030 13229 c-29 -16 -31 -19 -12 -19 27 0 29 -16 3 -25 -11 -3 -22
-12 -25 -20 -4 -10 5 -8 27 7 17 13 34 26 35 31 2 4 11 7 20 7 10 0 28 10 42
21 l25 21 -25 -14 c-35 -21 -84 -32 -75 -18 4 6 17 15 29 20 11 5 14 8 6 8 -8
0 -31 -9 -50 -19z"/>
<path d="M5940 13174 c-25 -13 -25 -14 -2 -14 12 0 22 -5 22 -12 0 -19 14 1
15 22 2 23 -1 23 -35 4z"/>
<path d="M5872 13135 c-20 -10 -21 -13 -7 -19 27 -10 42 -7 25 5 -12 9 -11 10
7 6 13 -3 26 0 30 5 3 7 1 8 -5 4 -7 -4 -12 -2 -12 3 0 14 -9 13 -38 -4z"/>
<path d="M5830 13116 c0 -3 9 -10 20 -16 11 -6 20 -8 20 -6 0 3 -9 10 -20 16
-11 6 -20 8 -20 6z"/>
<path d="M5824 13085 c8 -8 18 -15 22 -15 3 0 1 7 -6 15 -7 8 -17 15 -22 15
-5 0 -3 -7 6 -15z"/>
<path d="M5780 13073 c8 -3 18 -11 22 -17 4 -6 10 -7 15 -3 9 10 -16 27 -37
26 -13 -1 -13 -1 0 -6z"/>
<path d="M5734 13051 c8 -12 56 -20 56 -10 0 5 -3 9 -7 10 -5 0 -18 2 -31 5
-13 2 -21 0 -18 -5z"/>
<path d="M5748 13023 c7 -3 16 -2 19 1 4 3 -2 6 -13 5 -11 0 -14 -3 -6 -6z"/>
<path d="M5695 13010 c-3 -5 1 -10 9 -10 9 0 16 5 16 10 0 6 -4 10 -9 10 -6 0
-13 -4 -16 -10z"/>
<path d="M5629 12983 c-13 -17 -13 -17 6 -3 11 8 22 16 24 17 2 2 0 3 -6 3 -6
0 -17 -8 -24 -17z"/>
<path d="M5562 12960 c-18 -10 -29 -21 -24 -23 4 -3 21 5 38 18 35 29 31 30
-14 5z"/>
<path d="M5605 12940 c-3 -6 1 -7 9 -4 18 7 21 14 7 14 -6 0 -13 -4 -16 -10z"/>
<path d="M5439 12898 c-3 -10 -7 -38 -5 -38 1 0 9 9 19 20 14 17 14 20 2 20
-8 0 -15 -1 -16 -2z"/>
<path d="M5491 12891 c-10 -7 -7 -9 12 -8 14 1 23 5 20 10 -6 9 -15 9 -32 -2z"/>
<path d="M5395 12859 c-4 -6 -4 -13 -1 -16 3 -3 0 -13 -7 -21 -10 -13 -9 -14
3 -10 8 2 15 11 15 19 0 8 4 20 8 27 5 6 4 12 -2 12 -5 0 -13 -5 -16 -11z"/>
<path d="M5460 12859 c0 -5 5 -7 10 -4 6 3 10 8 10 11 0 2 -4 4 -10 4 -5 0
-10 -5 -10 -11z"/>
<path d="M5340 12830 c-14 -11 -20 -20 -14 -20 6 0 19 9 29 20 23 25 17 25
-15 0z"/>
<path d="M5425 12840 c-3 -5 -2 -10 4 -10 5 0 13 5 16 10 3 6 2 10 -4 10 -5 0
-13 -4 -16 -10z"/>
<path d="M5344 12799 c-19 -21 -19 -21 0 -18 11 2 20 12 22 22 3 22 1 22 -22
-4z"/>
<path d="M5180 12740 c-9 -6 -10 -10 -3 -10 6 0 15 5 18 10 8 12 4 12 -15 0z"/>
<path d="M5161 12700 c-27 -23 -16 -27 13 -5 10 8 23 12 29 8 6 -3 7 -1 3 5
-10 16 -17 15 -45 -8z"/>
<path d="M5080 12670 c0 -5 4 -10 9 -10 6 0 13 5 16 10 3 6 -1 10 -9 10 -9 0
-16 -4 -16 -10z"/>
<path d="M5050 12650 c12 -9 10 -10 -12 -6 -16 4 -28 2 -28 -4 0 -5 3 -10 8
-11 4 0 17 -2 29 -5 15 -3 21 1 19 13 -2 9 -9 19 -17 21 -11 3 -11 1 1 -8z"/>
<path d="M4992 12614 c10 -10 20 -16 22 -13 3 3 -5 11 -17 18 -21 13 -21 12
-5 -5z"/>
<path d="M4965 12590 c10 -11 20 -18 23 -16 5 6 -23 36 -34 36 -4 0 1 -9 11
-20z"/>
<path d="M4921 12586 c2 -2 15 -9 29 -15 24 -11 24 -11 6 3 -16 13 -49 24 -35
12z"/>
<path d="M4910 12559 c12 -9 11 -10 -7 -6 -15 3 -20 1 -16 -9 6 -17 13 -17 36
0 16 12 16 14 1 20 -24 9 -31 7 -14 -5z"/>
<path d="M4871 12524 c0 -11 3 -14 6 -6 3 7 2 16 -1 19 -3 4 -6 -2 -5 -13z"/>
<path d="M4840 12520 c0 -5 5 -10 11 -10 5 0 7 5 4 10 -3 6 -8 10 -11 10 -2 0
-4 -4 -4 -10z"/>
<path d="M14455 18390 c-13 -14 -19 -36 -19 -68 -1 -44 1 -47 24 -47 19 0 29
9 44 39 32 66 -6 124 -49 76z"/>
<path d="M14298 18298 c-36 -56 -33 -118 7 -118 49 0 77 131 29 138 -13 2 -27
-6 -36 -20z"/>
<path d="M14514 18195 c-40 -24 -107 -64 -150 -88 -44 -24 -284 -162 -534
-307 -250 -145 -485 -280 -522 -301 -38 -22 -98 -56 -135 -77 -38 -22 -153
-89 -258 -149 -104 -61 -276 -160 -382 -220 l-191 -111 -94 54 c-51 29 -96 54
-100 54 -5 0 -8 -498 -8 -1108 l0 -1107 -225 -225 c-232 -232 -246 -251 -212
-291 6 -9 62 -44 122 -79 l110 -63 98 24 c53 14 100 23 102 20 3 -2 5 -140 5
-306 0 -226 3 -305 13 -317 18 -24 209 -131 232 -130 11 0 58 22 105 50 47 27
306 176 575 332 270 155 535 308 590 340 55 32 273 158 485 280 212 122 393
229 404 238 10 10 25 30 35 47 15 27 16 174 18 1752 2 947 -1 1724 -5 1727 -4
2 -39 -16 -78 -39z m-46 -692 c-3 -31 -1 -29 -325 -216 -110 -64 -207 -118
-214 -119 -8 -2 -15 7 -17 19 -2 16 7 28 35 47 61 40 507 295 516 296 5 0 7
-12 5 -27z m-613 -343 c3 -5 1 -18 -4 -29 -10 -19 -87 -64 -681 -406 -179
-103 -367 -212 -418 -242 -123 -73 -224 -125 -230 -119 -2 3 -2 16 2 29 4 18
56 53 228 152 123 70 243 140 268 155 25 15 196 114 380 220 184 106 355 205
380 221 49 30 66 34 75 19z m-1100 -167 c-8 -32 -27 -115 -44 -185 -17 -70
-31 -134 -31 -142 0 -17 -36 -63 -44 -56 -6 6 79 382 94 418 5 12 16 22 24 22
12 0 12 -8 1 -57z m451 -19 c-3 -8 -12 -14 -21 -14 -22 0 -20 56 3 69 14 8 18
5 20 -15 2 -14 1 -32 -2 -40z m-336 -58 c-1 -17 -14 -56 -30 -86 -22 -44 -30
-51 -35 -37 -4 10 0 38 10 63 16 41 16 47 1 63 -16 18 -22 62 -9 74 4 4 19 -5
35 -20 19 -18 28 -36 28 -57z m246 8 c-3 -8 -12 -14 -21 -14 -21 0 -20 49 3
66 15 11 17 10 20 -13 2 -13 1 -31 -2 -39z m-76 -17 c0 -25 -17 -47 -37 -47
-16 0 -17 42 -1 58 19 19 38 14 38 -11z m1120 -73 c-17 -27 -331 -214 -362
-214 -23 0 -24 32 0 52 17 16 241 146 317 186 48 24 67 14 45 -24z m-1583 -57
c-13 -30 -13 -36 0 -49 17 -18 24 -66 11 -74 -12 -8 -68 45 -68 65 0 8 15 46
33 85 30 66 32 69 35 40 2 -18 -3 -48 -11 -67z m1178 83 c3 -5 1 -18 -4 -28
-12 -22 -338 -212 -364 -212 -27 0 -20 37 11 60 52 38 317 189 334 189 9 1 20
-3 23 -9z m515 -184 c0 -26 -34 -50 -280 -191 -424 -244 -585 -337 -813 -469
-120 -69 -225 -126 -233 -126 -20 0 -18 34 4 52 16 13 122 76 377 223 343 198
436 252 580 335 315 183 340 196 353 192 6 -2 12 -10 12 -16z m-950 -81 c0
-23 -40 -47 -712 -436 -36 -22 -71 -39 -77 -39 -18 0 -13 45 7 62 9 9 107 67
217 131 110 63 251 144 313 181 62 36 115 66 117 66 2 0 30 16 61 34 62 38 74
38 74 1z m414 27 c12 -20 -10 -54 -48 -76 -22 -13 -119 -70 -214 -125 -96 -56
-176 -101 -178 -101 -2 0 -23 -12 -45 -26 -85 -53 -299 -174 -309 -174 -17 0
-11 46 8 62 9 9 123 76 252 151 129 74 298 171 375 216 144 84 150 87 159 73z
m433 -238 c6 -18 -25 -55 -65 -75 -15 -7 -54 -30 -87 -49 -149 -89 -217 -122
-228 -111 -24 24 13 56 178 151 94 54 176 99 183 99 7 1 15 -6 19 -15z m-432
-244 c15 -24 -33 -62 -206 -162 -101 -57 -271 -155 -378 -216 -106 -62 -199
-112 -207 -112 -8 0 -14 10 -14 25 0 19 10 32 43 51 23 13 132 77 242 140 110
64 229 133 265 153 246 143 242 142 255 121z m-905 -57 c0 -10 -4 -23 -8 -29
-12 -18 -266 -164 -284 -164 -12 0 -18 8 -18 25 0 18 11 30 48 51 26 15 88 51
137 81 95 56 125 64 125 36z m1642 -8 c-2 -11 -7 -23 -11 -27 -4 -4 -85 -53
-181 -108 -174 -100 -207 -110 -182 -56 12 27 336 218 362 213 9 -2 14 -11 12
-22z m-1642 -228 c0 -13 -8 -31 -17 -39 -33 -28 -262 -158 -278 -158 -12 0
-15 8 -13 27 3 24 23 39 143 110 77 45 146 82 153 83 6 0 12 -11 12 -23z
m1644 -11 c-9 -26 -18 -33 -129 -98 -524 -303 -657 -378 -665 -378 -6 0 -10
11 -10 24 0 30 8 36 220 158 91 53 255 147 364 211 110 63 206 113 213 110 9
-4 11 -13 7 -27z m-434 -11 c0 -19 -16 -33 -82 -71 -676 -391 -699 -404 -709
-404 -5 0 -9 11 -9 25 0 31 16 41 380 250 151 87 304 175 339 196 36 21 68 36
73 33 4 -3 8 -16 8 -29z m-440 -14 c0 -25 -17 -37 -220 -153 -91 -52 -225
-129 -298 -171 -73 -43 -137 -77 -142 -77 -15 0 -12 37 5 53 8 9 79 52 157 98
79 45 215 124 303 175 88 52 168 94 178 94 10 0 17 -8 17 -19z m-770 -205 c0
-16 -10 -32 -27 -44 -48 -32 -262 -152 -273 -152 -16 0 -12 46 6 61 27 23 268
159 282 159 6 0 12 -11 12 -24z m1640 0 c0 -13 -6 -28 -13 -34 -32 -27 -532
-310 -539 -306 -16 10 -8 43 15 59 12 9 56 35 97 59 41 24 136 78 210 121 74
43 153 89 175 102 50 29 55 29 55 -1z m-1640 -234 c0 -31 -21 -48 -151 -121
-160 -89 -159 -89 -159 -60 0 13 4 29 8 35 10 15 273 164 289 164 7 0 13 -8
13 -18z m1638 -9 c-3 -26 -36 -49 -198 -140 -25 -14 -97 -56 -160 -93 -133
-78 -175 -100 -190 -100 -16 0 -12 36 8 52 31 27 513 306 530 307 9 1 12 -8
10 -26z m-658 -142 c0 -10 -8 -25 -17 -33 -36 -30 -304 -179 -313 -173 -16 10
-11 31 11 51 31 28 303 183 312 177 4 -2 7 -12 7 -22z m660 -85 c0 -19 -17
-34 -92 -78 -203 -119 -255 -148 -271 -148 -20 0 -22 19 -4 43 14 19 335 207
355 207 6 0 12 -11 12 -24z m0 -239 c0 -27 -17 -44 -80 -79 -25 -13 -135 -77
-245 -141 -242 -140 -235 -137 -235 -103 0 30 28 49 315 211 22 13 83 48 135
79 52 31 98 56 103 56 4 0 7 -11 7 -23z m-1642 -254 c-2 -21 -15 -35 -48 -56
-123 -77 -214 -128 -236 -133 -21 -5 -24 -3 -24 20 0 16 9 31 24 41 63 41 263
154 274 154 9 1 12 -9 10 -26z m1027 -93 c13 -21 -19 -51 -108 -103 -50 -30
-243 -141 -427 -247 -184 -106 -360 -208 -390 -225 -290 -171 -393 -226 -402
-217 -19 19 2 48 60 81 31 19 113 66 182 106 205 118 508 293 795 459 149 86
273 156 277 156 4 0 10 -4 13 -10z m-1025 -144 c0 -16 -10 -32 -27 -44 -48
-32 -262 -152 -273 -152 -16 0 -12 46 6 61 27 23 268 159 282 159 6 0 12 -11
12 -24z m0 -234 c0 -10 -6 -25 -12 -34 -13 -15 -278 -168 -291 -168 -12 0 -7
49 6 61 25 23 263 157 280 158 10 1 17 -6 17 -17z"/>
<path d="M14140 18203 c-15 -20 -20 -38 -18 -67 3 -36 6 -41 28 -41 19 0 29 9
43 37 37 75 -5 131 -53 71z"/>
<path d="M13260 13613 c-14 -9 -28 -22 -32 -27 -11 -16 -10 -28 2 -21 6 3 10
1 10 -5 0 -7 -7 -10 -15 -6 -17 6 -58 -51 -49 -66 3 -5 2 -8 -3 -7 -20 3 -23
-3 -12 -23 12 -22 11 -22 -6 -8 -10 8 -16 10 -12 3 4 -6 1 -17 -6 -25 -7 -7
-18 -24 -25 -38 -7 -15 -10 -17 -7 -5 7 23 4 20 -54 -57 -23 -31 -40 -62 -36
-68 3 -6 10 -8 15 -5 4 3 6 -4 3 -15 -3 -11 -9 -20 -14 -20 -5 0 -6 6 -3 14 3
7 -2 16 -12 20 -11 4 -15 2 -11 -8 4 -10 1 -13 -9 -9 -11 4 -15 0 -12 -13 2
-10 -1 -19 -7 -19 -5 0 -23 -10 -40 -21 -35 -25 -81 -41 -71 -26 3 5 -3 12
-13 15 -11 2 -28 22 -39 43 -11 22 -23 38 -26 37 -15 -7 -17 -2 -6 13 11 13
10 16 -8 21 -12 3 -22 10 -22 15 0 5 6 6 13 1 6 -4 1 7 -13 24 -32 39 -71 63
-104 63 -26 0 -26 -2 -21 -47 5 -48 15 -350 19 -583 2 -69 -1 -129 -5 -135 -7
-10 -18 -111 -19 -170 0 -16 -5 -32 -10 -35 -5 -3 -12 -30 -15 -60 -3 -30 -12
-89 -21 -130 -8 -41 -13 -88 -10 -105 2 -16 2 -23 -1 -15 -4 8 -12 -19 -19
-60 -11 -66 -11 -77 3 -92 9 -10 13 -18 9 -18 -7 0 -17 7 -55 40 -30 26 -61
41 -71 35 -6 -4 -7 1 -3 11 5 14 3 16 -12 10 -11 -4 -16 -4 -12 0 4 4 -5 20
-20 36 -27 28 -50 38 -37 16 5 -9 2 -8 -9 1 -10 8 -15 16 -12 19 6 7 -45 62
-57 62 -5 0 -6 -5 -2 -12 5 -7 3 -8 -5 -4 -7 5 -10 11 -6 14 6 7 -55 72 -68
72 -4 0 -5 -6 -1 -12 4 -7 -2 -4 -14 6 -25 21 -31 36 -7 16 8 -7 15 -10 15 -7
0 10 -199 187 -210 187 -6 0 -8 -6 -4 -12 4 -7 4 -10 -1 -6 -4 4 -15 2 -24 -5
-14 -10 -14 -10 -3 5 9 11 10 18 2 23 -6 3 -8 10 -5 15 3 5 -7 20 -22 34 -27
25 -50 35 -39 18 3 -5 -1 -9 -9 -9 -12 0 -12 3 -3 15 10 11 7 18 -12 33 -14
10 -31 17 -38 14 -7 -3 -10 0 -7 6 11 17 -26 50 -49 43 -15 -4 -17 -3 -8 4 17
12 -87 107 -135 123 -18 6 -33 15 -33 19 0 16 -38 31 -46 18 -5 -7 -3 -8 6 -3
9 6 11 4 5 -5 -6 -9 -4 -12 7 -8 9 4 15 0 15 -8 0 -12 -3 -12 -21 0 -12 8 -20
19 -19 25 4 16 -58 46 -67 31 -5 -8 -10 -6 -20 4 -10 13 -36 16 -127 15 l-115
0 21 -20 c12 -11 27 -17 34 -13 6 4 9 3 4 -1 -9 -10 21 -45 40 -45 7 0 13 -3
13 -7 0 -5 51 -60 113 -123 62 -63 125 -132 141 -153 15 -20 33 -34 39 -30 6
3 7 1 3 -6 -10 -16 22 -64 36 -55 7 4 8 3 4 -4 -7 -11 31 -77 67 -116 11 -14
17 -15 17 -6 0 7 3 11 6 8 3 -4 0 -17 -7 -30 -11 -20 -10 -21 3 -11 12 11 14
8 10 -19 -3 -19 -1 -28 5 -25 10 6 18 -27 28 -113 8 -60 7 -93 -3 -150 -8 -46
-7 -56 7 -67 14 -12 14 -12 -4 -7 -24 8 -15 -1 40 -41 22 -17 46 -28 54 -27 8
2 10 -1 6 -8 -5 -9 -1 -10 16 -5 17 4 20 3 10 -3 -11 -8 -8 -14 15 -28 16 -10
31 -21 34 -24 14 -17 101 -70 114 -70 8 0 18 -5 22 -12 4 -7 3 -8 -4 -4 -7 4
-12 5 -12 3 0 -2 21 -19 48 -37 26 -19 53 -40 61 -47 7 -8 23 -11 35 -8 15 5
17 4 8 -3 -11 -7 -3 -17 33 -41 25 -17 51 -28 57 -25 7 5 8 2 3 -6 -6 -10 -4
-12 9 -7 10 4 15 3 11 -3 -3 -6 -2 -10 4 -10 5 0 13 5 16 10 3 6 12 10 18 10
7 0 4 -5 -5 -11 -25 -14 -22 -28 10 -42 15 -6 36 -20 46 -29 22 -20 41 -24 30
-6 -4 7 -3 8 5 4 6 -4 9 -11 6 -16 -3 -5 23 -28 57 -50 l63 -42 -44 41 c-24
22 -48 38 -53 35 -4 -3 -8 0 -8 5 0 6 4 11 10 11 12 0 110 -87 104 -92 -2 -3
7 -10 21 -16 19 -9 24 -9 22 1 -1 6 -6 15 -12 19 -7 5 -7 8 0 8 73 5 102 4 92
-2 -7 -4 -24 -8 -39 -8 -29 0 -41 -10 -30 -26 15 -23 172 -45 172 -24 0 5 6 7
13 4 28 -10 110 81 119 132 2 10 7 22 11 25 5 4 10 24 10 47 1 22 5 38 9 35 4
-2 5 10 1 28 -4 23 -3 30 5 25 8 -5 12 2 13 21 3 68 8 131 15 163 3 19 8 139
10 265 5 330 10 475 18 482 3 3 6 20 6 37 0 17 8 66 19 108 14 61 28 90 62
133 24 31 49 65 55 75 6 11 14 17 17 13 4 -3 7 -1 7 6 0 7 11 22 25 33 14 11
23 23 20 28 -3 5 7 18 22 30 23 18 25 23 13 32 -12 8 -12 9 2 4 13 -4 28 11
59 54 22 32 39 61 37 64 -1 3 6 12 17 20 20 14 20 15 1 33 -17 17 -18 17 -13
1 8 -24 0 -23 -13 1 -10 20 2 24 28 8 26 -17 75 76 75 143 0 38 -8 61 -54 167
-21 48 -58 80 -71 60 -9 -13 -9 -11 -12 63 -2 54 -12 74 -33 66 -11 -4 -13 -2
-9 9 7 20 -4 19 -34 -2z m170 -251 c0 -3 -7 3 -15 14 -8 10 -14 26 -15 34 0 8
7 2 15 -14 8 -15 15 -31 15 -34z m-53 26 c-3 -8 -6 -5 -6 6 -1 11 2 17 5 13 3
-3 4 -12 1 -19z m-723 -20 c-3 -4 -11 -5 -19 -1 -21 7 -19 12 4 10 11 0 18 -5
15 -9z m434 -33 c-6 -14 -15 -25 -20 -25 -5 0 -1 11 8 25 9 14 18 25 20 25 2
0 -2 -11 -8 -25z m-23 -48 c6 -5 3 -7 -6 -4 -9 3 -22 0 -29 -6 -9 -8 -8 -5 1
10 7 12 16 19 19 15 3 -4 10 -11 15 -15z m-271 -73 c3 -8 2 -12 -4 -9 -6 3
-10 10 -10 16 0 14 7 11 14 -7z m659 -29 c-7 -21 -12 -19 -10 4 0 11 5 18 9
15 4 -3 5 -11 1 -19z m-523 -45 c-8 -5 -19 -10 -25 -10 -5 0 -3 5 5 10 8 5 20
10 25 10 6 0 3 -5 -5 -10z m-83 -6 c-3 -3 -12 -4 -19 -1 -8 3 -5 6 6 6 11 1
17 -2 13 -5z m468 -163 c-3 -6 -11 -11 -16 -11 -5 0 -4 6 3 14 14 16 24 13 13
-3z m-81 -110 c3 -5 -1 -14 -8 -20 -10 -9 -16 -9 -21 -1 -4 6 -1 9 7 8 7 -2
12 3 11 10 -3 14 3 16 11 3z m-1543 -208 c13 -16 12 -17 -3 -4 -17 13 -22 21
-14 21 2 0 10 -8 17 -17z m20 -70 c13 -16 12 -17 -3 -4 -17 13 -22 21 -14 21
2 0 10 -8 17 -17z m916 -145 c-3 -8 -6 -5 -6 6 -1 11 2 17 5 13 3 -3 4 -12 1
-19z m390 -60 c-3 -8 -6 -5 -6 6 -1 11 2 17 5 13 3 -3 4 -12 1 -19z m-17 2 c0
-5 -2 -10 -4 -10 -3 0 -8 5 -11 10 -3 6 -1 10 4 10 6 0 11 -4 11 -10z m-373
-82 c-3 -7 -5 -2 -5 12 0 14 2 19 5 13 2 -7 2 -19 0 -25z m380 0 c-3 -7 -5 -2
-5 12 0 14 2 19 5 13 2 -7 2 -19 0 -25z m-880 -25 c3 -7 -6 -17 -19 -23 -21
-10 -21 -10 -5 3 21 18 22 31 1 23 -9 -3 -12 -2 -9 5 8 12 27 7 32 -8z m480
-5 c-3 -8 -6 -5 -6 6 -1 11 2 17 5 13 3 -3 4 -12 1 -19z m370 -410 c-3 -8 -6
-5 -6 6 -1 11 2 17 5 13 3 -3 4 -12 1 -19z m-1137 -79 c0 -5 -11 1 -25 13 -14
12 -25 23 -25 25 0 2 11 -4 25 -13 14 -9 25 -20 25 -25z m86 -36 c-4 -9 -1
-20 6 -25 9 -5 10 -8 1 -8 -6 0 -14 4 -17 9 -6 10 3 41 11 41 3 0 2 -8 -1 -17z
m129 -83 c3 -6 -1 -7 -9 -4 -18 7 -21 14 -7 14 6 0 13 -4 16 -10z m341 -254
c1 -7 -4 -13 -12 -13 -9 0 -11 4 -4 12 5 7 8 15 5 18 -3 4 -2 5 2 2 4 -3 8
-11 9 -19z m534 -86 c0 -5 -2 -10 -4 -10 -3 0 -8 5 -11 10 -3 6 -1 10 4 10 6
0 11 -4 11 -10z m-62 -75 c-20 -19 -40 -35 -45 -35 -8 1 68 70 77 70 3 0 -12
-16 -32 -35z"/>
<path d="M9958 12590 c-43 -11 -103 -33 -135 -49 -57 -29 -133 -93 -133 -112
0 -6 -4 -7 -10 -4 -5 3 -10 0 -10 -9 0 -8 -4 -16 -8 -18 -11 -4 -73 -125 -83
-163 -4 -16 -15 -52 -23 -80 -14 -45 -25 -84 -80 -283 -8 -30 -12 -60 -9 -68
3 -8 1 -14 -4 -14 -10 0 -39 -106 -35 -124 2 -4 -2 -13 -7 -20 -5 -6 -12 -29
-16 -51 -4 -22 -9 -47 -12 -55 -10 -26 -12 -34 -24 -89 -11 -48 -13 -51 -23
-32 -11 19 -13 14 -25 -41 -7 -35 -17 -76 -21 -93 -5 -16 -12 -50 -15 -75 -4
-25 -12 -51 -18 -58 -6 -7 -12 -46 -13 -85 -2 -40 -10 -115 -20 -167 -9 -52
-17 -114 -18 -137 0 -23 -3 -37 -7 -32 -8 14 -31 -123 -23 -144 3 -9 1 -23 -5
-31 -14 -17 -12 -108 2 -99 6 3 7 1 3 -5 -16 -27 101 -149 131 -137 9 3 11 0
7 -6 -4 -8 1 -9 17 -4 22 7 22 7 5 -10 -17 -17 -16 -19 10 -42 15 -12 34 -23
41 -23 8 0 23 -10 34 -22 16 -20 18 -20 19 -5 0 18 20 23 35 8 14 -14 106 -61
118 -61 6 0 18 -6 26 -14 9 -8 48 -31 86 -52 39 -20 77 -42 85 -49 8 -6 34
-19 58 -29 24 -9 73 -33 110 -54 37 -20 99 -53 137 -72 39 -19 71 -38 73 -42
12 -27 60 -74 71 -70 9 3 11 -1 7 -15 -9 -27 32 -81 46 -61 6 9 7 6 3 -8 -4
-17 2 -28 25 -45 16 -13 51 -43 77 -67 61 -56 154 -117 172 -114 7 2 10 -1 6
-7 -9 -16 -1 -14 45 10 23 12 39 27 37 33 -3 6 8 11 26 12 17 1 36 9 43 19 13
17 15 17 32 2 10 -9 28 -17 40 -17 11 0 23 -4 26 -9 3 -5 27 -14 53 -20 27 -6
59 -14 73 -18 14 -3 41 -6 60 -5 19 0 40 -4 46 -9 13 -10 125 -3 134 9 3 4 11
7 18 8 29 2 33 5 26 16 -5 7 -1 9 13 6 11 -3 28 1 39 10 19 14 19 15 -1 8 -11
-4 -16 -4 -12 1 5 4 21 8 37 9 15 1 34 6 42 12 64 52 81 71 82 93 1 19 7 24
27 24 31 1 79 30 79 48 0 21 -36 36 -142 57 -101 21 -155 36 -171 50 -4 4 30
29 77 55 47 26 83 52 79 58 -3 6 -1 7 5 3 15 -9 123 55 115 68 -3 5 -1 6 5 2
6 -3 63 23 127 59 142 79 157 89 147 100 -4 5 -1 5 5 1 16 -9 56 17 45 29 -4
5 -2 5 5 2 14 -9 96 37 86 48 -5 4 -3 5 4 1 12 -7 34 4 146 72 37 23 69 42 72
42 3 0 43 23 91 52 l86 51 -28 24 c-15 13 -34 21 -41 18 -9 -3 -11 0 -7 7 5 8
2 9 -9 5 -9 -3 -19 -1 -23 5 -5 7 -2 8 6 3 9 -5 11 -4 6 4 -4 6 -34 29 -67 51
-58 39 -86 50 -74 31 3 -5 0 -13 -6 -17 -7 -4 -9 -3 -5 4 3 6 -2 16 -11 22
-17 11 -17 11 0 6 11 -3 16 -2 12 4 -10 16 -127 91 -120 77 4 -6 -2 -3 -12 9
-23 26 -186 134 -203 134 -10 0 -10 -3 0 -15 7 -8 17 -12 23 -8 6 4 7 1 3 -6
-6 -9 -13 -8 -27 5 -11 9 -22 14 -25 11 -13 -13 -53 -141 -47 -150 3 -6 1 -7
-5 -3 -13 8 -28 -37 -18 -52 3 -5 0 -9 -8 -8 -7 0 -34 -25 -59 -57 -48 -61
-138 -139 -199 -171 -20 -11 -34 -24 -31 -29 3 -6 1 -7 -6 -3 -6 4 -22 1 -34
-7 -25 -16 -172 -67 -194 -67 -8 0 -11 -5 -7 -12 4 -6 3 -8 -4 -4 -6 3 -73 -5
-149 -20 -162 -31 -158 -30 -333 -39 -74 -3 -150 -8 -168 -11 -19 -3 -32 -1
-29 3 3 5 -19 24 -50 42 -39 24 -57 30 -63 22 -5 -9 -10 -8 -20 4 -11 13 -10
14 6 8 17 -6 17 -5 5 11 -8 9 -21 14 -30 11 -8 -3 -12 -3 -9 1 4 4 -39 38 -95
76 -56 39 -112 79 -123 90 -17 15 -23 16 -27 6 -4 -8 -6 -7 -6 5 -1 10 -5 15
-11 12 -5 -3 -10 -3 -10 2 0 4 -23 24 -50 43 -27 19 -50 38 -50 43 0 4 -5 7
-10 7 -21 0 -109 76 -109 94 -1 17 24 103 55 189 8 20 14 48 14 61 0 12 3 26
8 30 4 4 7 11 8 14 0 4 6 20 12 35 7 16 12 36 12 45 0 10 16 64 36 122 20 58
45 138 55 178 9 40 23 80 29 88 7 7 9 25 6 39 -4 14 -2 25 4 25 5 0 10 7 10
15 0 8 21 42 46 74 29 38 43 64 38 73 -4 7 -4 10 1 6 10 -10 59 95 73 157 21
93 25 140 22 255 -4 173 -4 178 -13 173 -5 -3 -6 21 -2 53 5 46 4 56 -5 44 -9
-12 -11 -10 -6 11 3 14 3 29 -1 33 -4 4 -8 14 -9 22 -2 9 -8 39 -15 66 -8 36
-14 46 -21 37 -7 -11 -8 -9 -7 6 3 25 -18 77 -34 87 -18 12 -55 8 -139 -12z
m147 -19 c3 -5 2 -12 -3 -15 -5 -3 -9 1 -9 9 0 17 3 19 12 6z m82 -523 c-3 -7
-5 -2 -5 12 0 14 2 19 5 13 2 -7 2 -19 0 -25z m-60 -350 c-3 -8 -6 -5 -6 6 -1
11 2 17 5 13 3 -3 4 -12 1 -19z m-30 -20 c-3 -8 -6 -5 -6 6 -1 11 2 17 5 13 3
-3 4 -12 1 -19z m1 -53 c-3 -3 -9 2 -12 12 -6 14 -5 15 5 6 7 -7 10 -15 7 -18z
m-46 -57 c-7 -7 -12 -8 -12 -2 0 14 12 26 19 19 2 -3 -1 -11 -7 -17z m-702
-276 c0 -7 -4 -10 -10 -7 -5 3 -10 16 -10 28 0 18 2 19 10 7 5 -8 10 -21 10
-28z m-41 -110 c5 -10 6 -24 2 -31 -6 -9 -10 -3 -13 18 -5 36 -3 38 11 13z
m-28 -73 c-5 -13 -10 -19 -10 -12 -1 15 10 45 15 40 3 -2 0 -15 -5 -28z m-1
-49 c0 -5 -5 -10 -11 -10 -5 0 -7 5 -4 10 3 6 8 10 11 10 2 0 4 -4 4 -10z
m-18 -270 c-9 -24 -9 -24 -14 -2 -4 12 -2 20 3 16 5 -3 10 5 10 18 1 14 3 17
6 7 2 -8 0 -26 -5 -39z m2459 -37 c-12 -20 -14 -14 -5 12 4 9 9 14 11 11 3 -2
0 -13 -6 -23z m109 7 c0 -5 -4 -10 -10 -10 -5 0 -10 5 -10 10 0 6 5 10 10 10
6 0 10 -4 10 -10z m107 -65 c0 -8 -4 -12 -9 -9 -5 3 -6 10 -3 15 9 13 12 11
12 -6z m57 -46 c-6 -11 -24 -2 -24 11 0 5 7 7 15 4 8 -4 12 -10 9 -15z m-40 3
c2 -4 -4 -8 -14 -8 -10 0 -16 4 -14 8 3 4 9 8 14 8 5 0 11 -4 14 -8z m-292
-71 c8 12 9 12 6 0 -2 -8 -11 -15 -20 -17 -12 -1 -15 3 -10 14 4 12 7 13 10 3
4 -11 6 -11 14 0z m513 -41 c-3 -5 -1 -10 6 -10 7 0 10 -3 6 -6 -9 -9 -28 6
-22 17 4 5 8 9 11 9 3 0 2 -4 -1 -10z m26 -33 c-6 -8 -9 -16 -6 -18 2 -3 -4
-5 -14 -5 -10 0 -18 6 -18 12 0 7 6 10 13 7 6 -2 15 0 19 6 3 6 9 11 12 11 3
0 0 -6 -6 -13z m-2071 -138 c0 -6 -4 -7 -10 -4 -5 3 -10 11 -10 16 0 6 5 7 10
4 6 -3 10 -11 10 -16z m145 -119 c3 -6 -1 -7 -9 -4 -18 7 -21 14 -7 14 6 0 13
-4 16 -10z m542 -66 c-3 -3 -12 -4 -19 -1 -8 3 -5 6 6 6 11 1 17 -2 13 -5z
m-430 -10 c-3 -3 -12 -4 -19 -1 -8 3 -5 6 6 6 11 1 17 -2 13 -5z m93 2 c0 -2
-7 -7 -16 -10 -8 -3 -12 -2 -9 4 6 10 25 14 25 6z m377 -2 c-3 -3 -12 -4 -19
-1 -8 3 -5 6 6 6 11 1 17 -2 13 -5z m908 -33 c3 -5 0 -13 -6 -17 -8 -5 -9 -3
-4 6 6 10 4 12 -9 7 -10 -4 -15 -3 -11 3 8 13 22 13 30 1z m-1190 -19 c-3 -3
-11 0 -18 7 -9 10 -8 11 6 5 10 -3 15 -9 12 -12z m278 -29 c-13 -2 -35 -2 -50
0 -16 2 -5 4 22 4 28 0 40 -2 28 -4z m157 -19 c0 -2 -11 -4 -25 -4 -14 0 -25
4 -25 9 0 4 11 6 25 3 14 -2 25 -6 25 -8z m105 -14 c3 -5 -1 -10 -10 -10 -9 0
-13 5 -10 10 3 6 8 10 10 10 2 0 7 -4 10 -10z m125 0 c0 -5 -9 -10 -20 -10
-11 0 -20 5 -20 10 0 6 9 10 20 10 11 0 20 -4 20 -10z m45 0 c8 -14 -4 -70
-15 -70 -5 0 -8 9 -7 20 1 11 5 20 9 20 4 0 8 5 8 10 0 6 -7 10 -16 10 -8 0
-12 5 -9 10 8 13 22 13 30 0z m355 3 c0 -1 -8 -7 -18 -12 -13 -7 -19 -6 -19 2
0 7 9 13 19 13 10 0 18 -1 18 -3z m-170 -77 c0 -2 -7 -7 -16 -10 -8 -3 -12 -2
-9 4 6 10 25 14 25 6z m-230 -10 c0 -2 -7 -7 -16 -10 -8 -3 -12 -2 -9 4 6 10
25 14 25 6z m-67 -33 c-7 -2 -19 -2 -25 0 -7 3 -2 5 12 5 14 0 19 -2 13 -5z
m-66 -29 c-3 -3 -12 -4 -19 -1 -8 3 -5 6 6 6 11 1 17 -2 13 -5z m18 -24 c3 -6
-4 -10 -17 -10 -18 0 -20 2 -8 10 19 12 18 12 25 0z m185 6 c0 -2 -7 -7 -16
-10 -8 -3 -12 -2 -9 4 6 10 25 14 25 6z m-163 -72 c-3 -3 -12 -4 -19 -1 -8 3
-5 6 6 6 11 1 17 -2 13 -5z m63 -24 c18 -12 2 -12 -25 0 -13 6 -15 9 -5 9 8 0
22 -4 30 -9z m-790 -80 c0 -5 -4 -10 -10 -10 -5 0 -10 5 -10 10 0 6 5 10 10
10 6 0 10 -4 10 -10z m1077 -6 c-3 -3 -12 -4 -19 -1 -8 3 -5 6 6 6 11 1 17 -2
13 -5z m-54 -11 c-7 -2 -21 -2 -30 0 -10 3 -4 5 12 5 17 0 24 -2 18 -5z m54
-9 c-3 -3 -12 -4 -19 -1 -8 3 -5 6 6 6 11 1 17 -2 13 -5z m-1111 -13 c-8 -12
-46 -21 -46 -11 0 5 10 11 23 13 12 2 23 5 25 6 2 0 1 -3 -2 -8z m174 -39 c0
-4 15 -13 33 -21 21 -9 27 -15 18 -18 -8 -3 -17 -1 -19 6 -2 6 -9 11 -17 11
-7 0 -18 7 -25 15 -9 10 -9 15 -1 15 6 0 11 -4 11 -8z m840 -61 c0 -5 -7 -11
-14 -14 -10 -4 -13 -1 -9 9 6 15 23 19 23 5z m-790 -81 c-8 -5 -19 -10 -25
-10 -5 0 -3 5 5 10 8 5 20 10 25 10 6 0 3 -5 -5 -10z m407 -6 c-3 -3 -12 -4
-19 -1 -8 3 -5 6 6 6 11 1 17 -2 13 -5z m176 -1 c-7 -2 -21 -2 -30 0 -10 3 -4
5 12 5 17 0 24 -2 18 -5z m-256 -9 c-3 -3 -12 -4 -19 -1 -8 3 -5 6 6 6 11 1
17 -2 13 -5z m240 -20 c-3 -3 -12 -4 -19 -1 -8 3 -5 6 6 6 11 1 17 -2 13 -5z"/>
<path d="M11935 12440 c3 -5 8 -10 11 -10 2 0 4 5 4 10 0 6 -5 10 -11 10 -5 0
-7 -4 -4 -10z"/>
<path d="M7435 12295 c-14 -13 -25 -28 -25 -33 0 -9 118 -35 135 -30 17 5 6
42 -21 66 -33 29 -59 28 -89 -3z"/>
<path d="M6892 12229 c-11 -4 -25 -17 -31 -28 -15 -26 -14 -81 1 -81 6 0 35
18 65 41 42 31 52 44 43 54 -14 17 -51 24 -78 14z"/>
<path d="M9341 12164 c0 -11 3 -14 6 -6 3 7 2 16 -1 19 -3 4 -6 -2 -5 -13z"/>
<path d="M7455 12115 c-29 -28 -31 -51 -9 -83 23 -34 85 -28 98 9 13 37 1 74
-29 87 -34 16 -32 16 -60 -13z"/>
<path d="M6976 12054 c-35 -35 -5 -114 44 -114 27 0 60 35 60 63 0 56 -66 89
-104 51z"/>
<path d="M9391 12014 c0 -11 3 -14 6 -6 3 7 2 16 -1 19 -3 4 -6 -2 -5 -13z"/>
<path d="M9267 11943 c-11 -20 -17 -102 -8 -108 6 -3 9 0 6 7 -3 7 -1 35 4 61
8 45 7 56 -2 40z"/>
<path d="M9242 11740 c0 -19 2 -27 5 -17 2 9 2 25 0 35 -3 9 -5 1 -5 -18z"/>
<path d="M9263 11630 c0 -36 2 -50 4 -32 2 17 2 47 0 65 -2 17 -4 3 -4 -33z"/>
<path d="M9242 11655 c0 -16 2 -22 5 -12 2 9 2 23 0 30 -3 6 -5 -1 -5 -18z"/>
<path d="M7070 11630 c0 -5 6 -10 13 -10 9 0 8 -3 -2 -9 -10 -7 -10 -10 -1
-16 7 -4 16 -1 21 6 5 8 9 9 9 4 0 -6 9 -11 21 -12 27 -2 69 -30 69 -46 0 -8
4 -7 10 3 8 12 10 9 10 -12 0 -34 19 -29 43 11 16 27 16 29 -1 36 -9 5 -21 9
-27 10 -5 2 -33 10 -62 18 -28 8 -54 13 -56 10 -3 -2 -15 0 -26 7 -14 7 -21 7
-21 0z"/>
<path d="M15560 11607 c-36 -19 -249 -142 -475 -272 -225 -131 -430 -250 -455
-263 -25 -14 -113 -65 -197 -114 -83 -48 -169 -97 -190 -109 -21 -12 -166 -96
-323 -186 -157 -91 -336 -194 -398 -230 -119 -69 -166 -114 -182 -173 -7 -30
-40 -376 -40 -429 0 -12 -49 -46 -157 -108 -185 -105 -278 -159 -583 -336
-124 -71 -322 -186 -440 -254 -118 -69 -223 -134 -232 -145 -10 -11 -18 -35
-18 -53 0 -18 8 -42 18 -53 9 -12 89 -62 177 -113 88 -51 229 -132 314 -181
84 -48 164 -91 177 -94 25 -6 17 -11 417 220 132 76 240 136 242 134 1 -2 -9
-140 -22 -307 -29 -341 -27 -361 33 -418 40 -38 106 -52 163 -35 20 7 232 125
471 263 239 138 469 270 510 294 l75 43 6 -27 c19 -77 14 -87 -63 -132 -141
-80 -148 -86 -148 -122 0 -17 4 -38 9 -45 4 -7 77 -54 162 -103 104 -61 163
-89 185 -89 21 0 75 26 165 78 74 43 223 130 332 193 128 73 202 122 207 136
7 16 -12 84 -71 264 -43 134 -79 246 -79 249 0 3 102 64 226 135 190 109 232
137 260 175 18 25 35 58 38 75 18 96 169 2000 162 2039 -5 24 -22 54 -45 79
-36 38 -43 41 -102 45 -58 4 -70 1 -129 -31z m-851 -1616 c54 -54 22 -207 -63
-308 -36 -43 -106 -78 -140 -69 -66 16 -70 126 -9 247 59 119 161 181 212 130z"/>
<path d="M9241 11564 c0 -11 3 -14 6 -6 3 7 2 16 -1 19 -3 4 -6 -2 -5 -13z"/>
<path d="M6086 11541 c-4 -5 3 -7 14 -4 23 6 26 13 6 13 -8 0 -17 -4 -20 -9z"/>
<path d="M9243 11490 c0 -30 2 -43 4 -27 2 15 2 39 0 55 -2 15 -4 2 -4 -28z"/>
<path d="M9353 11475 c0 -22 2 -30 4 -17 2 12 2 30 0 40 -3 9 -5 -1 -4 -23z"/>
<path d="M6039 11489 c-10 -6 -7 -9 14 -9 29 0 35 5 14 13 -8 3 -20 1 -28 -4z"/>
<path d="M5951 11464 c-24 -13 -39 -24 -33 -24 6 0 19 -3 29 -6 15 -5 15 -4 3
5 -17 12 -12 14 39 15 13 1 26 6 28 12 7 22 -22 21 -66 -2z"/>
<path d="M5975 11430 c-3 -6 1 -7 9 -4 18 7 21 14 7 14 -6 0 -13 -4 -16 -10z"/>
<path d="M5892 11423 c9 -2 19 -12 21 -21 4 -14 5 -14 6 2 1 15 4 16 16 6 9
-7 15 -8 15 -2 0 12 -25 22 -53 21 -16 -1 -18 -2 -5 -6z"/>
<path d="M9240 11371 c0 -6 4 -13 10 -16 6 -3 7 1 4 9 -7 18 -14 21 -14 7z"/>
<path d="M5777 11329 c-9 -6 -27 -7 -40 -4 -21 7 -21 6 -3 -7 14 -11 24 -12
42 -4 13 6 24 14 24 19 0 9 -1 9 -23 -4z"/>
<path d="M5677 11308 c-3 -8 5 -14 20 -14 13 -1 23 -1 21 0 -2 1 -10 7 -19 14
-13 10 -18 10 -22 0z"/>
<path d="M9242 11300 c0 -14 2 -19 5 -12 2 6 2 18 0 25 -3 6 -5 1 -5 -13z"/>
<path d="M5635 11260 c3 -5 13 -10 21 -10 8 0 12 5 9 10 -3 6 -13 10 -21 10
-8 0 -12 -4 -9 -10z"/>
<path d="M5570 11239 c-29 -21 -17 -25 19 -5 13 7 20 16 15 19 -5 3 -21 -3
-34 -14z"/>
<path d="M9242 11225 c0 -16 2 -22 5 -12 2 9 2 23 0 30 -3 6 -5 -1 -5 -18z"/>
<path d="M9262 11230 c0 -14 2 -19 5 -12 2 6 2 18 0 25 -3 6 -5 1 -5 -13z"/>
<path d="M5515 11211 c-3 -5 0 -13 6 -17 7 -4 9 -3 5 4 -3 5 0 13 6 15 9 4 10
6 1 6 -6 1 -14 -3 -18 -8z"/>
<path d="M9262 11180 c0 -14 2 -19 5 -12 2 6 2 18 0 25 -3 6 -5 1 -5 -13z"/>
<path d="M5530 11180 c-9 -6 -10 -10 -3 -10 6 0 15 5 18 10 8 12 4 12 -15 0z"/>
<path d="M5419 11153 c-13 -16 -12 -17 4 -4 16 13 21 21 13 21 -2 0 -10 -8
-17 -17z"/>
<path d="M5463 11159 c14 -8 22 -8 30 0 8 8 3 11 -18 11 -26 -1 -28 -2 -12
-11z"/>
<path d="M5440 11140 c0 -5 7 -10 16 -10 8 0 12 5 9 10 -3 6 -10 10 -16 10 -5
0 -9 -4 -9 -10z"/>
<path d="M5362 11119 c-9 -12 -30 -27 -47 -35 -30 -13 -30 -13 15 -9 25 2 48
4 53 4 4 1 7 6 7 12 0 8 -5 8 -15 -1 -11 -9 -15 -9 -15 -1 0 6 7 14 15 17 8 4
12 10 9 15 -7 12 7 11 26 -1 12 -8 12 -10 1 -10 -8 0 -12 -3 -8 -6 3 -3 14 -1
24 4 16 10 15 12 -10 21 -36 14 -34 14 -55 -10z"/>
<path d="M5255 11048 c24 -15 64 -23 50 -10 -6 5 -23 12 -40 16 -27 6 -28 5
-10 -6z"/>
<path d="M5220 11031 c0 -9 30 -24 36 -18 2 1 -6 8 -16 15 -11 7 -20 8 -20 3z"/>
<path d="M5140 10988 c-25 -13 -29 -18 -15 -18 19 1 63 27 54 33 -2 2 -20 -5
-39 -15z"/>
<path d="M5205 11000 c3 -5 11 -10 16 -10 6 0 7 5 4 10 -3 6 -11 10 -16 10 -6
0 -7 -4 -4 -10z"/>
<path d="M5190 10980 c0 -5 5 -10 11 -10 5 0 7 5 4 10 -3 6 -8 10 -11 10 -2 0
-4 -4 -4 -10z"/>
<path d="M5090 10962 c0 -6 -8 -13 -17 -15 -16 -4 -16 -5 -1 -6 18 -1 34 16
24 26 -3 4 -6 1 -6 -5z"/>
<path d="M5065 10914 c-22 -13 -35 -24 -28 -24 12 0 83 39 83 46 0 8 -16 2
-55 -22z"/>
<path d="M4990 10909 c-19 -10 -28 -19 -20 -19 20 1 89 39 70 39 -8 0 -31 -9
-50 -20z"/>
<path d="M5005 10880 c3 -5 8 -10 11 -10 2 0 4 5 4 10 0 6 -5 10 -11 10 -5 0
-7 -4 -4 -10z"/>
<path d="M4968 10873 c10 -4 9 -10 -5 -26 l-18 -20 28 18 c21 13 25 20 15 26
-7 5 -17 8 -23 8 -5 0 -4 -3 3 -6z"/>
<path d="M4903 10856 c-13 -6 -23 -14 -23 -17 0 -11 38 2 51 17 13 16 4 16
-28 0z"/>
<path d="M11720 10840 c0 -5 5 -10 10 -10 6 0 10 5 10 10 0 6 -4 10 -10 10 -5
0 -10 -4 -10 -10z"/>
<path d="M4855 10820 c3 -5 11 -10 16 -10 6 0 7 5 4 10 -3 6 -11 10 -16 10 -6
0 -7 -4 -4 -10z"/>
<path d="M4905 10820 c-3 -5 -2 -10 4 -10 5 0 13 5 16 10 3 6 2 10 -4 10 -5 0
-13 -4 -16 -10z"/>
<path d="M4790 10779 c0 -5 5 -7 10 -4 6 3 10 8 10 11 0 2 -4 4 -10 4 -5 0
-10 -5 -10 -11z"/>
<path d="M4705 10743 c-18 -14 -18 -15 -2 -9 10 3 27 6 38 6 10 0 19 5 19 10
0 15 -33 11 -55 -7z"/>
<path d="M4726 10718 c5 -7 0 -9 -14 -6 -12 4 -22 2 -22 -3 0 -11 31 -11 48 0
11 7 10 9 -3 14 -10 5 -14 3 -9 -5z"/>
<path d="M4658 10683 c7 -3 16 -2 19 1 4 3 -2 6 -13 5 -11 0 -14 -3 -6 -6z"/>
<path d="M4556 10658 c-21 -10 -35 -22 -32 -25 4 -4 12 -1 18 5 7 7 19 12 28
12 9 0 25 7 36 15 28 21 -2 17 -50 -7z"/>
<path d="M4555 10629 c-10 -14 -1 -21 19 -13 9 3 13 10 10 15 -7 12 -21 11
-29 -2z"/>
<path d="M4506 10591 c-10 -11 -25 -17 -34 -14 -15 4 -15 3 -2 -6 11 -7 21 -5
40 12 14 12 27 23 29 25 2 1 0 2 -6 2 -5 0 -18 -9 -27 -19z"/>
<path d="M4400 10565 c0 -9 -6 -12 -15 -9 -8 4 -15 1 -15 -5 0 -6 6 -11 14
-11 8 0 16 -5 18 -10 2 -7 11 -4 23 5 19 16 19 16 -5 9 -25 -7 -25 -7 -6 15
17 19 17 21 3 21 -10 0 -17 -7 -17 -15z"/>
<path d="M4278 10493 c7 -3 16 -2 19 1 4 3 -2 6 -13 5 -11 0 -14 -3 -6 -6z"/>
<path d="M4330 10489 c0 -5 -4 -8 -9 -5 -5 3 -14 -1 -21 -9 -20 -24 13 -19 35
5 10 11 13 20 7 20 -7 0 -12 -5 -12 -11z"/>
<path d="M4237 10469 c7 -7 15 -10 18 -7 3 3 -2 9 -12 12 -14 6 -15 5 -6 -5z"/>
<path d="M4140 10420 c-9 -6 -10 -10 -3 -10 6 0 15 5 18 10 8 12 4 12 -15 0z"/>
<path d="M4196 10414 c-26 -18 -17 -24 12 -8 13 6 20 14 15 17 -4 3 -17 -1
-27 -9z"/>
<path d="M4110 10370 c-14 -11 -20 -20 -15 -20 6 0 21 9 35 20 14 11 21 20 15
20 -5 0 -21 -9 -35 -20z"/>
<path d="M4040 10351 c0 -6 4 -13 10 -16 6 -3 7 1 4 9 -7 18 -14 21 -14 7z"/>
<path d="M3836 10234 c-3 -8 -2 -12 4 -9 6 3 10 -2 10 -12 0 -15 2 -16 10 -3
8 13 10 13 10 -1 0 -10 -21 -28 -52 -44 -86 -44 -118 -66 -112 -76 3 -5 38 -9
78 -9 75 0 94 9 109 52 8 23 -11 88 -29 95 -7 3 -11 9 -8 14 3 5 1 9 -4 9 -6
0 -13 -7 -16 -16z"/>
<path d="M9337 10230 c3 -11 7 -20 9 -20 2 0 4 9 4 20 0 11 -4 20 -9 20 -5 0
-7 -9 -4 -20z"/>
<path d="M3740 10190 c-14 -11 -20 -20 -14 -20 14 0 50 27 44 33 -3 3 -16 -3
-30 -13z"/>
<path d="M3814 10200 c-12 -5 -25 -14 -29 -21 -5 -7 -3 -9 6 -5 8 3 22 9 32
12 9 4 17 10 17 15 0 5 -1 9 -2 8 -2 0 -13 -4 -24 -9z"/>
<path d="M3700 10161 c0 -6 -8 -11 -17 -12 -10 0 -13 -3 -6 -5 18 -8 49 11 34
20 -6 4 -11 2 -11 -3z"/>
<path d="M3625 10120 c-18 -8 -17 -9 7 -9 15 -1 30 4 33 9 7 12 -12 12 -40 0z"/>
<path d="M3698 10123 c7 -3 16 -2 19 1 4 3 -2 6 -13 5 -11 0 -14 -3 -6 -6z"/>
<path d="M3670 10099 c0 -5 5 -7 10 -4 6 3 10 8 10 11 0 2 -4 4 -10 4 -5 0
-10 -5 -10 -11z"/>
<path d="M9411 10064 c0 -11 3 -14 6 -6 3 7 2 16 -1 19 -3 4 -6 -2 -5 -13z"/>
<path d="M9431 10064 c0 -11 3 -14 6 -6 3 7 2 16 -1 19 -3 4 -6 -2 -5 -13z"/>
<path d="M9421 10014 c0 -11 3 -14 6 -6 3 7 2 16 -1 19 -3 4 -6 -2 -5 -13z"/>
<path d="M9391 9964 c0 -11 3 -14 6 -6 3 7 2 16 -1 19 -3 4 -6 -2 -5 -13z"/>
<path d="M9431 9928 c0 -9 -4 -25 -7 -35 -5 -17 -5 -17 6 0 6 10 9 25 7 35 -4
15 -5 15 -6 0z"/>
<path d="M9430 9811 c0 -5 7 -17 16 -25 8 -9 16 -25 17 -35 0 -11 5 -17 11
-14 5 4 7 -1 3 -10 -9 -23 0 -22 12 1 8 14 2 26 -25 56 -19 20 -34 33 -34 27z"/>
<path d="M9509 9663 c22 -32 41 -50 41 -38 0 3 -14 20 -31 38 l-32 32 22 -32z"/>
<path d="M9560 9640 c6 -11 13 -20 16 -20 2 0 0 9 -6 20 -6 11 -13 20 -16 20
-2 0 0 -9 6 -20z"/>
<path d="M15968 9653 c7 -3 16 -2 19 1 4 3 -2 6 -13 5 -11 0 -14 -3 -6 -6z"/>
<path d="M11450 9629 c0 -5 5 -7 10 -4 6 3 10 8 10 11 0 2 -4 4 -10 4 -5 0
-10 -5 -10 -11z"/>
<path d="M9577 9603 c-3 -5 3 -14 13 -20 15 -10 18 -9 16 4 -3 19 -21 29 -29
16z"/>
<path d="M9638 9583 c6 -3 12 -9 12 -15 0 -6 -7 -7 -16 -4 -14 5 -15 4 -5 -8
11 -13 15 -13 32 2 25 22 24 27 -9 28 -15 1 -21 -1 -14 -3z"/>
<path d="M16400 9540 c0 -5 5 -10 11 -10 5 0 7 5 4 10 -3 6 -8 10 -11 10 -2 0
-4 -4 -4 -10z"/>
<path d="M9830 9520 c0 -5 5 -10 11 -10 5 0 7 5 4 10 -3 6 -8 10 -11 10 -2 0
-4 -4 -4 -10z"/>
<path d="M9681 9516 c2 -2 15 -9 29 -15 24 -11 24 -11 6 3 -16 13 -49 24 -35
12z"/>
<path d="M9735 9510 c4 -6 11 -8 16 -5 14 9 11 15 -7 15 -8 0 -12 -5 -9 -10z"/>
<path d="M16487 9509 c7 -7 15 -10 18 -7 3 3 -2 9 -12 12 -14 6 -15 5 -6 -5z"/>
<path d="M9810 9470 c0 -5 5 -10 10 -10 6 0 10 5 10 10 0 6 -4 10 -10 10 -5 0
-10 -4 -10 -10z"/>
<path d="M16586 9465 c10 -8 24 -14 29 -14 6 0 1 6 -9 14 -11 8 -24 15 -30 15
-5 0 -1 -7 10 -15z"/>
<path d="M9776 9456 c3 -8 18 -22 32 -31 l27 -16 -22 20 c-13 10 -23 24 -23
30 0 6 -4 11 -10 11 -5 0 -7 -6 -4 -14z"/>
<path d="M16647 9439 c7 -7 15 -10 18 -7 3 3 -2 9 -12 12 -14 6 -15 5 -6 -5z"/>
<path d="M10057 9399 c7 -7 15 -10 18 -7 3 3 -2 9 -12 12 -14 6 -15 5 -6 -5z"/>
<path d="M9747 9149 c-55 -138 -97 -252 -95 -254 1 -2 32 14 67 35 l65 39 73
183 c40 101 75 189 78 196 2 7 1 11 -3 8 -5 -3 -25 6 -45 19 -20 14 -37 25
-39 25 -2 0 -47 -113 -101 -251z"/>
<path d="M16663 9392 c-8 -5 1 -8 22 -8 21 0 30 3 22 8 -6 4 -16 8 -22 8 -5 0
-16 -4 -22 -8z"/>
<path d="M16800 9366 c0 -7 71 -49 75 -44 3 2 -13 15 -35 27 -22 12 -40 20
-40 17z"/>
<path d="M9951 9344 c0 -11 3 -14 6 -6 3 7 2 16 -1 19 -3 4 -6 -2 -5 -13z"/>
<path d="M11613 9340 c-18 -11 -123 -71 -232 -134 -185 -107 -463 -267 -905
-523 -98 -56 -184 -103 -190 -103 -7 0 -21 7 -32 15 -30 23 -61 18 -127 -21
-34 -20 -64 -38 -66 -40 -2 -1 10 -15 25 -29 25 -22 27 -27 14 -36 -8 -5 -100
-59 -203 -119 l-188 -109 -44 20 -45 21 -307 -177 c-170 -98 -348 -201 -398
-230 -203 -119 -512 -297 -668 -385 -53 -30 -100 -63 -103 -72 -8 -27 14 -92
38 -115 13 -11 268 -161 566 -333 433 -249 551 -313 580 -313 30 -1 87 28 302
152 398 230 499 289 680 393 135 78 793 458 1073 620 37 21 77 53 90 69 19 26
38 127 133 692 80 478 109 671 103 695 -7 31 -44 82 -58 82 -3 0 -21 -9 -38
-20z m-815 -1187 c61 -81 -126 -325 -261 -340 -41 -5 -47 -3 -63 22 -15 24
-16 33 -5 74 43 161 266 326 329 244z"/>
<path d="M9976 9333 c-6 -14 -5 -15 5 -6 7 7 10 15 7 18 -3 3 -9 -2 -12 -12z"/>
<path d="M10020 9336 c0 -2 7 -7 16 -10 8 -3 12 -2 9 4 -6 10 -25 14 -25 6z"/>
<path d="M16904 9306 c11 -9 24 -16 30 -16 12 0 7 5 -24 19 -24 11 -24 11 -6
-3z"/>
<path d="M10010 9303 c8 -3 18 -11 22 -17 5 -7 8 -4 8 7 0 11 -7 17 -22 16
-16 0 -18 -2 -8 -6z"/>
<path d="M10062 9281 c-11 -7 -11 -9 0 -14 9 -3 15 1 15 9 0 8 -1 14 -1 14 -1
0 -7 -4 -14 -9z"/>
<path d="M10190 9280 c0 -5 5 -10 10 -10 6 0 10 5 10 10 0 6 -4 10 -10 10 -5
0 -10 -4 -10 -10z"/>
<path d="M10275 9270 c3 -5 8 -10 11 -10 2 0 4 5 4 10 0 6 -5 10 -11 10 -5 0
-7 -4 -4 -10z"/>
<path d="M16751 9271 c-10 -6 -9 -10 3 -14 8 -3 18 -2 21 3 8 13 -9 20 -24 11z"/>
<path d="M16963 9265 c0 -8 4 -12 9 -9 5 3 6 10 3 15 -9 13 -12 11 -12 -6z"/>
<path d="M10118 9263 c7 -3 16 -2 19 1 4 3 -2 6 -13 5 -11 0 -14 -3 -6 -6z"/>
<path d="M10244 9244 c-18 -14 -18 -15 4 -4 12 6 22 13 22 15 0 8 -5 6 -26
-11z"/>
<path d="M10100 9246 c0 -2 7 -7 16 -10 8 -3 12 -2 9 4 -6 10 -25 14 -25 6z"/>
<path d="M16780 9236 c0 -2 7 -7 16 -10 8 -3 12 -2 9 4 -6 10 -25 14 -25 6z"/>
<path d="M10160 9221 c0 -5 7 -12 16 -15 14 -5 15 -4 4 9 -14 17 -20 19 -20 6z"/>
<path d="M17034 9221 c7 -11 46 -35 46 -28 0 3 -12 12 -26 22 -15 9 -23 12
-20 6z"/>
<path d="M16836 9195 c10 -8 23 -15 28 -15 6 0 1 7 -10 15 -10 8 -23 15 -28
15 -6 0 -1 -7 10 -15z"/>
<path d="M17110 9166 c0 -2 8 -10 18 -17 15 -13 16 -12 3 4 -13 16 -21 21 -21
13z"/>
<path d="M16987 9076 c15 -13 30 -23 32 -20 5 4 -41 43 -52 44 -4 0 5 -11 20
-24z"/>
<path d="M17066 9021 c-3 -4 4 -17 17 -27 22 -19 22 -19 4 2 -9 11 -14 24 -10
27 3 4 4 7 0 7 -3 0 -8 -4 -11 -9z"/>
<path d="M17291 8974 c0 -11 3 -14 6 -6 3 7 2 16 -1 19 -3 4 -6 -2 -5 -13z"/>
<path d="M17125 8950 c-8 -13 9 -20 24 -11 10 6 9 10 -3 14 -8 3 -18 2 -21 -3z"/>
<path d="M16550 8841 c-188 -109 -1228 -709 -1380 -796 -69 -39 -201 -116
-295 -170 -93 -54 -253 -146 -355 -205 -102 -58 -275 -158 -385 -222 -110 -63
-378 -218 -595 -343 -217 -125 -512 -295 -655 -378 -143 -82 -273 -157 -290
-167 -88 -50 -423 -244 -945 -545 -322 -186 -738 -426 -925 -533 -187 -108
-447 -258 -578 -333 l-238 -139 -202 117 c-111 64 -276 159 -367 211 -91 52
-201 116 -245 142 -44 26 -101 59 -127 73 -26 14 -116 66 -200 115 -84 49
-211 123 -283 164 -71 41 -249 144 -395 228 -146 84 -305 176 -355 205 -49 28
-151 87 -225 130 -74 43 -164 95 -200 115 -36 20 -249 143 -474 273 -225 130
-410 237 -412 237 -2 0 -4 -56 -4 -125 0 -71 -4 -125 -9 -125 -16 0 -22 18 -9
23 7 3 3 4 -9 4 -27 -1 -28 -6 -9 -21 15 -11 -34 -65 -413 -461 -204 -213
-449 -472 -486 -513 -21 -23 -39 -41 -42 -39 -2 2 12 42 32 88 19 46 105 262
190 479 294 745 266 681 289 675 19 -5 19 -4 -2 8 -12 7 -19 17 -15 22 4 4 2
5 -5 0 -9 -4 -25 1 -43 14 -31 23 -49 27 -49 11 0 -6 -52 -142 -115 -303 -64
-160 -168 -425 -232 -587 -64 -162 -145 -366 -180 -454 -34 -87 -63 -162 -63
-167 0 -9 31 -24 74 -35 23 -6 64 35 526 526 85 91 200 212 255 270 189 197
253 265 280 298 15 18 29 31 31 29 3 -2 4 -745 4 -1650 l0 -1645 47 -27 46
-28 44 24 43 24 0 1247 c0 687 2 1248 5 1248 3 0 81 -43 173 -97 92 -53 203
-117 247 -142 l80 -46 5 -620 5 -620 48 0 47 0 0 588 c0 323 2 587 4 587 3 0
44 -23 93 -51 48 -28 102 -59 118 -69 25 -14 101 -59 257 -149 25 -15 31 -32
72 -201 24 -102 52 -223 61 -270 23 -122 25 -126 85 -140 93 -22 302 5 393 51
53 27 54 30 62 105 l7 62 187 -108 c102 -59 317 -183 478 -276 l292 -169 51
-79 c97 -149 215 -235 377 -274 l73 -17 2 -1260 3 -1260 42 -23 41 -23 46 23
46 22 0 1252 0 1253 48 5 c139 17 222 51 268 112 45 59 32 182 -27 244 -26 28
-127 104 -146 111 -6 2 -41 28 -77 58 l-66 55 0 150 1 151 82 46 c45 26 168
96 272 156 278 160 615 354 1095 630 629 362 825 475 1030 593 102 59 199 115
217 124 l32 16 -10 -33 c-5 -17 -9 -54 -9 -81 0 -77 33 -123 148 -205 116 -82
139 -107 223 -231 164 -243 340 -351 599 -367 264 -16 495 107 451 240 -12 37
-49 79 -101 119 -61 46 -214 130 -237 130 -12 0 -21 3 -20 7 3 9 -167 176
-176 173 -5 -1 -6 2 -2 8 3 5 2 10 -3 10 -5 0 -12 10 -15 21 -4 14 -11 20 -21
16 -17 -7 -41 18 -31 33 6 9 -17 41 -84 117 -11 12 -21 30 -23 39 -3 20 -28
32 -28 14 0 -6 5 -8 12 -4 7 5 8 3 3 -5 -5 -9 -10 -10 -18 -2 -7 7 -6 15 2 25
10 12 9 16 -6 25 -10 6 -15 11 -11 11 4 0 -6 21 -22 47 -17 26 -30 53 -30 61
0 7 -5 10 -11 6 -8 -4 -9 1 -4 17 4 13 4 21 0 17 -5 -4 -16 16 -26 45 -10 28
-15 55 -11 58 7 7 299 175 1157 669 204 117 426 245 495 285 69 40 233 134
365 210 132 76 329 189 437 251 109 63 204 114 212 114 8 0 141 -73 295 -162
l281 -162 2 -1300 3 -1301 44 -24 44 -24 44 23 43 23 1 876 c0 482 2 872 4
866 2 -5 11 -77 20 -160 51 -474 192 -879 359 -1032 180 -165 534 -227 842
-148 33 9 100 36 151 61 144 71 231 175 314 377 111 270 177 613 186 962 7
285 -11 457 -59 554 -31 64 -146 191 -173 191 -7 0 -18 -14 -26 -32 -18 -43
-96 -161 -152 -230 l-46 -56 54 -41 c30 -22 66 -56 80 -76 l27 -34 -20 -28
c-52 -73 -132 -128 -248 -173 -290 -111 -700 -70 -903 90 -27 22 -61 55 -76
74 l-27 35 22 32 c29 40 131 120 143 112 6 -3 7 -1 3 5 -4 7 -13 12 -20 12 -6
0 -37 32 -66 71 -30 39 -59 76 -65 83 -13 15 -28 40 -61 99 -15 26 -31 47 -37
47 -22 0 -127 -123 -156 -182 -25 -51 -34 -88 -47 -198 -9 -74 -18 -137 -21
-140 -3 -3 -3 370 1 828 4 457 4 832 -1 832 -4 0 -69 -36 -143 -79z m-42 -675
l-3 -114 -192 112 c-106 61 -193 113 -193 116 0 3 87 55 193 117 l192 111 3
-114 c1 -63 1 -165 0 -228z m-9836 -1578 c29 -18 140 -82 246 -143 l192 -110
0 -287 c0 -208 -3 -288 -11 -288 -7 0 -91 46 -188 101 -97 56 -205 119 -241
139 l-65 38 -3 291 c-1 166 2 291 7 291 5 0 33 -15 63 -32z m6542 -3 c-18 -27
-25 -32 -21 -13 2 11 26 37 35 38 1 0 -5 -11 -14 -25z m-170 -90 c-10 -8 -23
-15 -28 -15 -6 0 -1 7 10 15 10 8 23 15 28 15 6 0 1 -7 -10 -15z m-64 -39 c0
-2 -7 -7 -16 -10 -8 -3 -12 -2 -9 4 6 10 25 14 25 6z m-56 -31 c-10 -8 -23
-15 -28 -15 -6 0 -1 7 10 15 10 8 23 15 28 15 6 0 1 -7 -10 -15z m-49 -25 c-3
-5 -12 -10 -18 -10 -7 0 -6 4 3 10 19 12 23 12 15 0z m-11 -79 c4 -5 1 -11 -6
-13 -9 -3 -8 -9 5 -22 16 -16 21 -26 14 -26 -2 0 -16 14 -33 31 -21 22 -24 28
-10 23 14 -5 17 -4 12 4 -4 7 -3 12 3 12 5 0 12 -4 15 -9z m-5479 -145 l160
-92 12 -134 c14 -161 25 -237 59 -388 14 -63 24 -115 22 -117 -2 -1 -91 49
-198 111 -107 63 -203 117 -212 120 -17 5 -18 28 -18 300 0 162 3 294 8 293 4
0 79 -42 167 -93z m5614 -20 c8 -12 -9 1 -37 29 -29 27 -52 51 -52 53 0 8 75
-62 89 -82z m11 70 c0 -3 -4 -8 -10 -11 -5 -3 -10 -1 -10 4 0 6 5 11 10 11 6
0 10 -2 10 -4z m500 -56 c0 -5 -5 -10 -11 -10 -5 0 -7 5 -4 10 3 6 8 10 11 10
2 0 4 -4 4 -10z m-472 -65 c-3 -3 -9 2 -12 12 -6 14 -5 15 5 6 7 -7 10 -15 7
-18z m58 -40 c-5 15 -4 17 5 8 11 -11 5 -33 -9 -33 -4 0 -13 10 -21 23 l-14
22 23 -20 23 -20 -7 20z m529 -15 c3 -5 1 -10 -4 -10 -6 0 -11 5 -11 10 0 6 2
10 4 10 3 0 8 -4 11 -10z m-11 -36 c3 -8 2 -12 -4 -9 -6 3 -10 10 -10 16 0 14
7 11 14 -7z m-348 -135 c19 -22 19 -22 -3 -8 -13 8 -23 17 -23 21 0 12 6 9 26
-13z m550 -6 c-7 -7 -26 7 -26 19 0 6 6 6 15 -2 9 -7 13 -15 11 -17z m-417
-90 c2 -2 0 -3 -6 -3 -6 0 -21 9 -34 21 l-24 20 30 -17 c17 -10 32 -19 34 -21z
m411 2 c0 -2 -10 -10 -22 -16 -21 -11 -22 -11 -9 4 13 16 31 23 31 12z m-177
-42 c-7 -2 -19 -2 -25 0 -7 3 -2 5 12 5 14 0 19 -2 13 -5z m-4940 -318 c163
-94 299 -178 302 -187 4 -10 16 -18 28 -18 21 0 282 -144 293 -161 2 -5 -6
-11 -20 -15 -42 -10 -61 -41 -66 -108 -5 -57 -7 -61 -32 -64 -54 -6 -110 55
-123 136 -7 45 -19 53 -33 25 -19 -37 -44 -247 -38 -315 l6 -68 -58 33 c-32
17 -178 101 -324 186 l-266 155 4 175 c6 253 15 402 23 399 4 -2 140 -79 304
-173z m1127 -705 l-1 -55 -34 40 c-34 38 -85 117 -85 130 0 3 27 -9 60 -27
l60 -33 0 -55z"/>
<path d="M17156 8907 c3 -10 9 -15 12 -12 3 3 0 11 -7 18 -10 9 -11 8 -5 -6z"/>
<path d="M17190 8866 c0 -2 8 -10 18 -17 15 -13 16 -12 3 4 -13 16 -21 21 -21
13z"/>
<path d="M17243 8832 c-1 -22 0 -24 9 -8 6 10 6 22 2 26 -5 5 -10 -3 -11 -18z"/>
<path d="M17296 8725 c9 -14 18 -25 20 -25 2 0 -2 11 -8 25 -6 14 -15 25 -20
25 -5 0 -1 -11 8 -25z"/>
<path d="M17356 8629 c3 -5 10 -6 16 -3 8 5 9 1 5 -10 -4 -11 -3 -15 4 -11 14
10 6 28 -14 31 -9 1 -15 -2 -11 -7z"/>
<path d="M17400 8555 c0 -5 9 -23 20 -40 26 -39 26 -25 0 17 -11 18 -20 29
-20 23z"/>
<path d="M5340 8539 c0 -5 5 -7 10 -4 6 3 10 8 10 11 0 2 -4 4 -10 4 -5 0 -10
-5 -10 -11z"/>
<path d="M5298 8523 c7 -3 16 -2 19 1 4 3 -2 6 -13 5 -11 0 -14 -3 -6 -6z"/>
<path d="M5354 8499 c-3 -6 -17 -8 -29 -5 -13 3 -26 2 -29 -2 -9 -15 52 -11
65 4 6 8 9 14 6 14 -3 0 -9 -5 -13 -11z"/>
<path d="M5271 8464 c0 -11 3 -14 6 -6 3 7 2 16 -1 19 -3 4 -6 -2 -5 -13z"/>
<path d="M2278 8393 c6 -2 18 -2 25 0 6 3 1 5 -13 5 -14 0 -19 -2 -12 -5z"/>
<path d="M5280 8351 c0 -17 4 -32 8 -35 4 -2 6 11 4 30 -5 42 -12 45 -12 5z"/>
<path d="M3700 8346 c0 -2 7 -7 16 -10 8 -3 12 -2 9 4 -6 10 -25 14 -25 6z"/>
<path d="M5332 8300 c0 -14 2 -19 5 -12 2 6 2 18 0 25 -3 6 -5 1 -5 -13z"/>
<path d="M5291 8264 c0 -11 3 -14 6 -6 3 7 2 16 -1 19 -3 4 -6 -2 -5 -13z"/>
<path d="M4065 8249 c-3 -9 1 -35 9 -59 8 -24 13 -46 11 -50 -2 -3 5 -16 14
-29 l18 -24 54 17 c30 10 60 19 66 21 15 5 6 35 -10 35 -14 0 -109 61 -124 80
-7 8 -13 11 -13 5 0 -5 -4 -3 -10 5 -8 13 -10 12 -15 -1z"/>
<path d="M3537 8208 c-3 -7 -2 -58 1 -114 6 -126 -1 -165 -39 -208 -19 -22
-27 -40 -23 -52 4 -13 3 -15 -3 -6 -12 16 -71 -55 -69 -83 3 -28 14 -45 32
-45 8 0 24 -9 36 -20 12 -11 28 -20 35 -20 7 0 13 -4 13 -9 0 -10 39 -24 60
-21 8 1 18 8 23 15 4 8 27 37 52 66 66 77 85 125 85 213 0 44 -5 78 -11 82 -7
4 -9 21 -5 44 6 37 5 37 -56 74 -33 20 -65 36 -69 36 -5 0 -9 5 -9 11 0 5 -4
7 -10 4 -5 -3 -10 -1 -10 5 0 7 -6 10 -14 7 -10 -4 -12 0 -9 14 6 21 -3 26
-10 7z m50 -260 c-3 -7 -5 -2 -5 12 0 14 2 19 5 13 2 -7 2 -19 0 -25z m-74
-114 c-4 -12 -8 -13 -14 -3 -9 15 -2 32 11 24 5 -3 6 -13 3 -21z m-86 -69 c0
-8 -4 -12 -9 -9 -5 3 -6 10 -3 15 9 13 12 11 12 -6z"/>
<path d="M5321 8144 c0 -11 3 -14 6 -6 3 7 2 16 -1 19 -3 4 -6 -2 -5 -13z"/>
<path d="M17551 8124 c0 -11 3 -14 6 -6 3 7 2 16 -1 19 -3 4 -6 -2 -5 -13z"/>
<path d="M5311 8094 c0 -11 3 -14 6 -6 3 7 2 16 -1 19 -3 4 -6 -2 -5 -13z"/>
<path d="M5362 8060 c0 -14 2 -19 5 -12 2 6 2 18 0 25 -3 6 -5 1 -5 -13z"/>
<path d="M5322 8040 c0 -14 2 -19 5 -12 2 6 2 18 0 25 -3 6 -5 1 -5 -13z"/>
<path d="M5338 7950 c-3 -16 -1 -30 4 -30 4 0 8 14 8 30 0 17 -2 30 -4 30 -2
0 -6 -13 -8 -30z"/>
<path d="M5341 7884 c0 -11 3 -14 6 -6 3 7 2 16 -1 19 -3 4 -6 -2 -5 -13z"/>
<path d="M5361 7770 c0 -8 4 -22 9 -30 12 -18 12 -2 0 25 -6 13 -9 15 -9 5z"/>
<path d="M3375 7740 c-3 -5 1 -10 9 -10 9 0 16 5 16 10 0 6 -4 10 -9 10 -6 0
-13 -4 -16 -10z"/>
<path d="M4206 7724 c4 -16 10 -30 13 -31 20 -9 -12 -262 -39 -314 -6 -10 -8
-19 -5 -19 3 0 -2 -11 -11 -25 -9 -14 -14 -32 -10 -40 3 -9 2 -13 -4 -10 -5 3
-19 -16 -32 -42 -12 -26 -37 -67 -56 -90 -19 -24 -31 -43 -26 -43 5 0 -2 -7
-14 -16 -21 -14 -33 -42 -13 -29 5 3 12 1 16 -5 4 -6 11 -7 17 -4 7 4 8 2 4
-5 -5 -7 -12 -9 -19 -3 -22 16 -63 -1 -51 -20 5 -7 2 -8 -5 -4 -16 10 -41 -23
-34 -44 4 -12 3 -12 -5 -2 -7 11 -19 6 -58 -24 -52 -40 -129 -77 -181 -89 -18
-3 -33 -11 -33 -17 0 -21 67 -75 114 -93 42 -16 55 -17 107 -6 78 16 132 39
123 53 -4 7 -3 8 4 4 12 -7 71 28 117 71 60 56 146 166 141 180 -3 8 -2 12 3
8 17 -10 72 88 101 180 7 22 16 47 20 56 19 38 32 138 26 199 -9 93 -23 136
-58 176 -36 41 -69 59 -121 69 -38 7 -38 7 -31 -21z m21 -396 c-3 -8 -6 -5 -6
6 -1 11 2 17 5 13 3 -3 4 -12 1 -19z m-104 -149 c-6 -6 -7 3 -4 23 4 28 6 29
9 9 2 -13 0 -27 -5 -32z m-48 -80 c-9 -16 -18 -29 -21 -29 -2 0 0 8 5 19 6 10
7 21 4 25 -3 3 -1 6 6 6 7 0 9 5 5 12 -4 7 -3 8 4 4 9 -5 8 -15 -3 -37z m-105
-93 c0 -3 -4 -8 -10 -11 -5 -3 -10 -1 -10 4 0 6 5 11 10 11 6 0 10 -2 10 -4z
m-90 -81 c-7 -8 -18 -15 -24 -15 -6 0 -2 7 8 15 25 19 32 19 16 0z m-173 -101
c-3 -3 -12 -4 -19 -1 -8 3 -5 6 6 6 11 1 17 -2 13 -5z m126 -41 c-7 -2 -19 -2
-25 0 -7 3 -2 5 12 5 14 0 19 -2 13 -5z"/>
<path d="M5411 7734 c0 -11 3 -14 6 -6 3 7 2 16 -1 19 -3 4 -6 -2 -5 -13z"/>
<path d="M2266 7701 c4 -9 9 -59 12 -112 5 -105 -16 -206 -62 -297 -13 -26
-21 -54 -18 -62 3 -8 1 -12 -3 -8 -5 5 -24 -16 -43 -45 -68 -103 -164 -185
-254 -218 -38 -13 -51 -29 -23 -29 8 0 14 -5 13 -11 -2 -6 10 -20 25 -32 50
-38 142 -28 234 26 104 62 253 265 270 370 3 20 10 37 15 37 5 0 6 9 3 20 -3
11 -2 20 3 20 13 0 26 135 16 152 -5 7 -9 27 -11 45 -2 38 -44 106 -78 129
-16 11 -34 14 -52 10 -21 -5 -24 -4 -13 4 8 5 13 10 10 11 -38 7 -50 4 -44
-10z m34 -327 c0 -8 -5 -12 -10 -9 -6 4 -8 11 -5 16 9 14 15 11 15 -7z m-60
-88 c0 -2 -8 -10 -17 -17 -16 -13 -17 -12 -4 4 13 16 21 21 21 13z m-20 -56
c6 -11 8 -20 6 -20 -3 0 -10 9 -16 20 -6 11 -8 20 -6 20 3 0 10 -9 16 -20z
m-140 -194 c0 -3 -4 -8 -10 -11 -5 -3 -10 -1 -10 4 0 6 5 11 10 11 6 0 10 -2
10 -4z m-55 -56 c3 -5 1 -10 -4 -10 -6 0 -11 5 -11 10 0 6 2 10 4 10 3 0 8 -4
11 -10z"/>
<path d="M3133 7713 c-7 -2 -13 -10 -13 -17 0 -6 -16 -43 -36 -80 -21 -38 -32
-66 -26 -62 8 5 10 2 6 -8 -3 -9 -10 -14 -14 -11 -9 5 -60 -108 -60 -133 0
-19 26 -41 104 -88 l51 -30 -1 -55 c-1 -77 -10 -125 -33 -168 l-19 -38 28 -22
c16 -11 32 -21 35 -21 3 0 29 -16 58 -35 61 -41 72 -43 88 -12 7 12 15 24 19
27 12 9 20 80 8 80 -7 0 -7 4 -1 13 6 6 15 26 21 44 10 29 8 35 -17 62 -33 35
-73 53 -98 45 -16 -5 -16 -4 -3 6 13 10 11 11 -8 7 -12 -3 -20 -2 -17 3 3 4
-2 20 -9 36 -11 20 -12 33 -5 46 6 11 8 27 4 36 -3 9 -3 13 2 9 4 -4 35 49 70
119 68 139 69 144 8 170 -16 7 -41 23 -55 36 -14 13 -34 23 -45 23 -11 0 -19
6 -17 13 2 12 -4 14 -25 5z m-102 -290 c-12 -20 -14 -14 -5 12 4 9 9 14 11 11
3 -2 0 -13 -6 -23z m117 -108 c3 -3 -4 -5 -16 -5 -11 0 -23 4 -27 9 -6 10 33
6 43 -4z m39 -107 c-3 -8 -6 -5 -6 6 -1 11 2 17 5 13 3 -3 4 -12 1 -19z"/>
<path d="M5424 7696 c-3 -8 -4 -23 -2 -33 3 -11 6 -6 9 15 6 34 2 42 -7 18z"/>
<path d="M1378 7623 c-22 -25 -110 -254 -104 -269 6 -15 49 -45 69 -48 8 -1
22 -8 31 -15 8 -7 21 -9 27 -5 7 4 9 3 5 -4 -3 -5 -1 -12 5 -14 12 -4 20 -58
9 -58 -4 0 -10 -25 -14 -56 -3 -31 -14 -70 -22 -87 -9 -18 -13 -29 -10 -25 4
3 45 -14 91 -38 l83 -44 16 48 c24 75 27 132 8 165 -11 18 -23 26 -34 23 -10
-2 -18 -1 -18 3 0 4 -15 13 -34 19 -41 15 -63 53 -45 77 18 25 50 126 43 137
-4 7 -3 10 1 5 8 -7 34 41 49 90 5 16 2 23 -13 28 -11 3 -36 17 -56 31 -24 16
-44 23 -58 19 -18 -5 -19 -4 -7 4 11 8 12 11 2 11 -7 0 -10 5 -7 10 10 16 -1
12 -17 -7z m-35 -118 c-3 -9 -8 -14 -10 -11 -3 3 -2 9 2 15 9 16 15 13 8 -4z
m-5 -61 c0 -17 -3 -22 -8 -13 -5 6 -6 18 -3 26 8 19 11 16 11 -13z"/>
<path d="M5432 7620 c0 -14 2 -19 5 -12 2 6 2 18 0 25 -3 6 -5 1 -5 -13z"/>
<path d="M5422 7570 c0 -14 2 -19 5 -12 2 6 2 18 0 25 -3 6 -5 1 -5 -13z"/>
<path d="M11824 7561 c-63 -36 -110 -89 -123 -138 -28 -98 -4 -278 52 -403 78
-176 202 -249 397 -237 168 10 257 69 328 218 54 112 75 195 75 304 1 100 -15
149 -61 199 -31 32 -86 70 -119 80 -23 7 -23 6 -23 -88 l0 -96 37 -34 c36 -33
37 -34 20 -59 -24 -38 -130 -85 -214 -97 -136 -19 -307 27 -356 95 -19 26 -19
26 17 60 l36 34 0 95 c0 53 -3 96 -7 96 -5 0 -31 -13 -59 -29z"/>
<path d="M5430 7491 c0 -5 5 -13 10 -16 6 -3 10 -2 10 4 0 5 -4 13 -10 16 -5
3 -10 2 -10 -4z"/>
<path d="M5466 7408 c15 -30 34 -30 34 0 0 13 -2 14 -9 3 -6 -9 -11 -10 -15
-2 -4 6 -5 15 -2 19 3 5 -1 9 -9 9 -12 0 -11 -5 1 -29z"/>
<path d="M5510 7340 c6 -11 15 -20 20 -20 6 0 2 9 -7 20 -10 11 -19 20 -21 20
-1 0 2 -9 8 -20z"/>
<path d="M5580 7350 c-9 -6 -10 -10 -3 -10 6 0 15 5 18 10 8 12 4 12 -15 0z"/>
<path d="M5570 7311 c0 -5 7 -12 16 -15 14 -5 15 -4 4 9 -14 17 -20 19 -20 6z"/>
<path d="M5570 7275 c18 -19 35 -33 37 -31 5 4 -56 66 -65 66 -3 0 9 -16 28
-35z"/>
<path d="M5649 7210 c19 -16 37 -28 39 -25 3 2 13 -6 23 -18 10 -12 18 -18 19
-13 0 5 8 2 18 -5 14 -11 15 -11 5 1 -9 9 -9 17 -2 26 7 8 6 14 -2 20 -7 4 -9
3 -5 -4 12 -20 -15 -24 -36 -5 -11 10 -23 18 -27 18 -3 0 -5 3 -4 7 2 4 -4 5
-12 2 -8 -4 -15 -2 -15 4 0 5 -8 13 -17 16 -10 3 -3 -7 16 -24z"/>
<path d="M5800 7101 c14 -11 30 -21 35 -21 11 0 -7 14 -40 31 -13 7 -12 3 5
-10z"/>
<path d="M5890 7070 c0 -5 5 -10 11 -10 5 0 7 5 4 10 -3 6 -8 10 -11 10 -2 0
-4 -4 -4 -10z"/>
<path d="M6060 7030 c-8 -5 -12 -12 -9 -15 4 -3 12 1 19 10 14 17 11 19 -10 5z"/>
<path d="M5986 6992 c-3 -5 1 -9 9 -9 8 0 12 4 9 9 -3 4 -7 8 -9 8 -2 0 -6 -4
-9 -8z"/>
<path d="M6160 6990 c0 -5 5 -10 11 -10 5 0 7 5 4 10 -3 6 -8 10 -11 10 -2 0
-4 -4 -4 -10z"/>
<path d="M6020 6972 c0 -4 14 -15 30 -24 17 -9 30 -14 30 -10 0 4 -14 15 -30
24 -17 9 -30 14 -30 10z"/>
<path d="M6165 6885 c37 -21 63 -31 70 -25 15 13 39 -5 29 -21 -6 -11 -4 -11
10 0 16 14 16 15 -6 27 -14 8 -27 9 -32 3 -6 -5 -30 3 -63 21 -29 17 -56 30
-60 30 -5 0 19 -16 52 -35z"/>
<path d="M1215 6812 c3 -29 9 -60 12 -69 6 -15 7 -14 14 3 7 17 8 17 8 -3 1
-13 -3 -23 -8 -23 -10 0 -3 -39 11 -57 12 -15 108 -65 108 -57 0 4 8 0 18 -8
34 -29 45 -33 33 -9 -7 11 -17 21 -24 21 -8 0 -8 3 2 9 10 7 11 18 3 58 -18
82 -28 99 -78 128 -27 16 -54 28 -61 28 -7 0 -13 4 -13 9 0 5 -4 7 -9 4 -5 -4
-12 0 -15 6 -3 7 -4 -11 -1 -40z m145 -182 c-8 -5 -19 -10 -25 -10 -5 0 -3 5
5 10 8 5 20 10 25 10 6 0 3 -5 -5 -10z"/>
<path d="M6294 6835 c-18 -15 -18 -15 0 -8 15 5 17 3 11 -8 -5 -8 -4 -11 0 -6
8 7 17 37 11 37 -1 0 -11 -7 -22 -15z"/>
<path d="M2874 6738 c3 -39 11 -77 16 -83 5 -7 7 -15 4 -18 -4 -3 -3 -22 0
-43 4 -20 10 -34 12 -31 3 3 17 -6 31 -19 18 -17 30 -21 37 -14 5 5 15 10 20
10 6 0 4 -4 -4 -10 -8 -5 -11 -12 -7 -16 3 -4 15 -1 24 7 16 13 17 12 5 -3
-14 -18 0 -34 20 -22 6 4 9 3 5 -2 -3 -5 11 -20 30 -33 19 -12 32 -17 28 -10
-5 6 -9 30 -11 53 -6 75 -28 196 -35 196 -9 0 -103 60 -141 89 -14 12 -29 21
-34 21 -4 0 -4 -32 0 -72z m86 -188 c8 -5 11 -10 5 -10 -5 0 -17 5 -25 10 -8
5 -10 10 -5 10 6 0 17 -5 25 -10z"/>
<path d="M1569 6627 c-43 -29 -49 -39 -73 -115 -14 -45 -23 -89 -19 -98 3 -8
41 -33 85 -55 44 -22 77 -35 73 -30 -3 6 -2 11 3 11 5 0 12 11 14 25 3 14 1
25 -6 25 -7 0 -7 3 -1 8 25 18 70 153 61 185 -8 32 -50 77 -72 77 -11 0 -40
-15 -65 -33z m-14 -57 c3 -5 1 -10 -4 -10 -6 0 -11 5 -11 10 0 6 2 10 4 10 3
0 8 -4 11 -10z m50 -210 c13 -6 15 -9 5 -9 -8 0 -22 4 -30 9 -18 12 -2 12 25
0z"/>
<path d="M9805 6590 c-79 -9 -141 -29 -161 -52 -21 -23 -12 -23 56 1 107 37
232 35 359 -5 18 -5 23 -4 19 7 -11 34 -162 61 -273 49z"/>
<path d="M2072 6573 c-6 -2 -9 -9 -6 -15 4 -6 -1 -8 -13 -4 -25 8 -53 -2 -53
-18 0 -16 107 -69 121 -60 7 4 9 3 6 -2 -3 -6 3 -15 13 -22 12 -7 21 -8 25 -2
3 6 2 10 -4 10 -6 0 -7 7 -4 17 4 10 2 14 -4 10 -7 -4 -14 8 -18 31 -10 55
-27 70 -63 55z m-28 -35 c-5 -7 -1 -9 13 -6 21 6 26 -13 8 -29 -4 -5 -5 -2 0
6 6 11 4 13 -8 8 -10 -3 -17 -5 -17 -3 0 3 -3 11 -6 20 -3 9 -1 16 6 16 6 0 8
-5 4 -12z"/>
<path d="M3307 6512 c-26 -16 -44 -31 -41 -35 4 -3 -3 -4 -15 -2 -12 2 -19 0
-16 -5 3 -5 1 -11 -4 -14 -16 -10 -63 -145 -55 -157 4 -7 3 -9 -3 -6 -6 4 -14
0 -17 -9 -8 -21 -8 -49 1 -41 3 4 12 -2 20 -13 8 -11 21 -20 29 -20 8 0 14 -4
14 -9 0 -12 29 -23 42 -15 7 4 6 9 -2 14 -8 5 -8 9 3 13 15 6 17 -9 4 -29 -8
-13 4 -24 50 -48 l31 -16 7 32 c7 32 65 180 90 231 9 17 11 37 6 55 -9 30 -69
102 -85 102 -6 0 -32 -13 -59 -28z"/>
<path d="M9959 6521 c-20 -16 -21 -21 -8 -26 21 -8 72 12 66 28 -6 20 -32 19
-58 -2z"/>
<path d="M3857 6386 c-15 -7 -24 -16 -20 -20 5 -5 -2 -4 -14 3 -23 11 -40 0
-28 -19 7 -11 86 -64 156 -104 l46 -26 -5 25 c-4 25 -22 36 -22 13 0 -6 -3 -8
-6 -5 -4 4 -1 13 6 22 7 9 10 19 6 23 -4 4 -14 -1 -21 -11 -7 -10 -16 -14 -19
-9 -2 4 3 14 13 22 15 10 17 19 10 44 -15 53 -47 66 -102 42z m63 -92 c0 -8
-19 -13 -24 -6 -3 5 1 9 9 9 8 0 15 -2 15 -3z"/>
<path d="M13530 6161 c0 -5 5 -13 10 -16 6 -3 10 -2 10 4 0 5 -4 13 -10 16 -5
3 -10 2 -10 -4z"/>
<path d="M9701 5961 c-11 -7 -8 -13 18 -29 17 -10 45 -40 62 -66 34 -54 53
-55 57 -4 2 28 -3 43 -25 68 -30 32 -86 49 -112 31z"/>
<path d="M9665 5920 c-17 -53 72 -142 126 -125 21 7 21 7 1 28 -11 12 -27 37
-36 54 -9 18 -30 39 -46 48 -37 19 -37 19 -45 -5z"/>
<path d="M8276 4440 c-69 -36 -82 -40 -150 -40 -90 0 -102 -12 -91 -89 10 -77
-28 -91 -95 -34 -40 33 -60 73 -60 119 0 36 -1 37 -19 20 -26 -24 -56 -222
-47 -309 23 -213 17 -203 153 -294 98 -65 112 -80 183 -203 103 -178 227 -276
410 -326 94 -26 353 -26 428 -1 112 38 162 91 162 173 0 114 -34 164 -180 260
-100 66 -271 230 -370 354 -51 64 -134 217 -180 333 -19 49 -42 77 -63 77 -3
0 -39 -18 -81 -40z"/>
</g>
</svg>
